<svg width="40" height="40" viewBox="0 0 40 40" fill="none" xmlns="http://www.w3.org/2000/svg">
    <path fill-rule="evenodd" clip-rule="evenodd" d="M19.9848 0C31.0156 0 39.9714 8.95583 39.9714 19.9848C39.9714 31.0156 31.0156 39.9714 19.9848 39.9714C8.95583 39.9714 0 31.0156 0 19.9848C0 8.95583 8.95583 0 19.9848 0ZM7.626 34.4382C3.54739 30.9568 0.960826 25.7783 0.960826 20.0009C0.960826 9.52626 9.46387 1.02143 19.9403 1.02143C29.1278 1.02143 36.7984 7.56361 38.5453 16.2396C36.0123 17.8635 33.9444 19.245 33.9444 19.245C21.746 19.9884 14.6441 21.6034 10.676 22.944C10.4443 22.1257 10.3267 21.2433 10.3267 20.2968C10.3267 18.8493 10.5691 17.564 11.0504 16.4374C11.5335 15.3108 12.218 14.366 13.1022 13.6031C13.9863 12.8383 15.022 12.2661 16.2075 11.8847C17.3947 11.5014 18.7103 11.3107 20.1577 11.3107C21.3646 11.3107 22.4698 11.4212 23.4752 11.6422C24.4806 11.8633 25.3558 12.136 26.0992 12.4569C26.8425 12.7777 27.4165 13.1093 27.8176 13.4516C28.2205 13.7938 28.4219 14.0648 28.4219 14.2662C28.4219 14.3874 28.4308 14.4873 28.4504 14.5675C28.4718 14.6477 28.4807 14.7279 28.4807 14.8081L29.1457 15.2912L33.1262 9.56191L32.4025 9.13943C32.2403 9.21965 32.0905 9.32126 31.9497 9.4407C31.8089 9.56191 31.6377 9.62252 31.4363 9.62252C31.1547 9.62252 30.693 9.4817 30.0494 9.20004C29.4059 8.91839 28.602 8.59752 27.6376 8.23565C26.6714 7.87378 25.5555 7.55113 24.2898 7.26948C23.0224 6.98783 21.6266 6.847 20.0989 6.847C18.1273 6.847 16.2075 7.12865 14.3375 7.69196C12.4693 8.25526 10.8097 9.10913 9.36226 10.2553C7.91478 11.4016 6.74896 12.8187 5.86478 14.5069C4.98061 16.1968 4.53674 18.1666 4.53674 20.418C4.53674 22.6694 4.98061 24.6499 5.86478 26.3594C6.14465 26.8996 6.44948 27.4112 6.78283 27.896L6.92544 28.5217C2.2247 30.5076 6.20348 32.6289 6.20348 32.6289C6.20348 32.6289 7.83635 33.6895 7.626 34.4382ZM16.7298 38.7094C14.4552 38.3207 12.3178 37.5275 10.3944 36.4062L12.3232 36.3617C11.8347 35.3367 11.5513 34.2136 11.5513 33.0264C11.5513 32.7287 11.5691 32.4346 11.6012 32.1458C12.1449 32.4257 12.71 32.6681 13.2983 32.8767C13.2965 32.9266 13.2965 32.9765 13.2965 33.0264C13.2965 34.2279 13.669 35.3384 14.2716 36.3153C14.8687 37.2833 15.7137 38.1068 16.7298 38.7094ZM29.9942 36.0978C28.6109 36.9642 27.1081 37.6558 25.518 38.146C26.2347 37.5792 26.8318 36.8875 27.2721 36.1103C27.7998 35.1833 28.1278 34.1441 28.1278 33.0264C28.1278 32.8107 28.1171 32.5986 28.0957 32.39C28.1955 32.349 28.2936 32.3098 28.3916 32.2688C28.8836 32.0638 29.3382 31.8677 29.7535 31.6823C29.832 32.119 29.873 32.5683 29.873 33.0264C29.873 34.112 29.627 35.1477 29.2098 36.1014C29.4665 36.0996 29.7268 36.0996 29.9942 36.0978ZM27.5912 27.5181C27.1634 27.7659 26.6767 28.003 26.1295 28.2276C26.0849 28.2472 26.0403 28.265 25.994 28.2829C24.6499 27.0404 22.78 26.2685 20.7121 26.2685C18.5195 26.2685 16.5497 27.1349 15.1932 28.5128C14.694 28.2454 14.2234 27.9335 13.7796 27.5734C15.4606 25.8015 17.9455 24.6784 20.7121 24.6784C23.4502 24.6784 25.912 25.7783 27.5912 27.5181ZM20.8565 39.7771C20.7656 39.7789 20.6729 39.7807 20.5802 39.7807C20.4875 39.7807 20.3948 39.7789 20.3021 39.7771H20.8565ZM27.9638 32.3882C26.9263 32.7982 25.7373 33.1494 24.3986 33.4435C22.9315 33.7644 21.2933 33.9266 19.4839 33.9266C18.6603 33.9266 17.8403 33.8749 17.0257 33.7715C16.0096 33.6414 14.9989 33.4328 13.9953 33.1423C13.7136 33.0603 13.4373 32.9711 13.1663 32.8749C13.2056 31.1992 13.915 29.6733 15.0613 28.511C15.0648 28.5128 15.0684 28.5146 15.0737 28.5182C15.4231 28.7036 15.7886 28.8694 16.1665 29.0102C17.2913 29.4327 18.4375 29.643 19.6033 29.643C20.4465 29.643 21.3004 29.5592 22.1667 29.3899C22.4181 29.34 22.6694 29.2847 22.9208 29.2223C23.9921 28.9531 24.9726 28.6412 25.8621 28.2811C27.0279 29.3596 27.7998 30.7928 27.9638 32.3882ZM13.6477 27.5716C12.4569 28.8266 11.6707 30.406 11.4693 32.144C11.3784 32.0977 11.2893 32.0495 11.2001 32.0014C10.4817 31.611 9.80613 31.1564 9.16974 30.6395C8.20713 29.8551 7.36752 28.9407 6.65091 27.8943L6.00561 25.0742C6.00561 25.0742 7.08587 24.1116 10.5441 22.9422C10.6671 23.3753 10.8222 23.7889 11.0094 24.1864C11.5531 25.3309 12.2661 26.3167 13.1503 27.1402C13.3125 27.2917 13.4783 27.4361 13.6477 27.5716ZM27.4593 27.5163C27.7534 27.347 28.0208 27.1705 28.2579 26.9905C28.8408 26.5484 29.1332 26.1455 29.1332 25.7837V25.3006C29.1332 25.0599 29.1136 24.8585 29.0726 24.698L29.7357 24.0955L34.1993 30.488L33.5968 30.7892C33.1137 30.5896 32.7715 30.488 32.5718 30.488C32.2492 30.488 31.7269 30.6698 31.0031 31.0317C30.602 31.2313 30.1404 31.4488 29.6216 31.6805C29.34 30.0993 28.5699 28.6679 27.4593 27.5163Z" fill="#171717"/>
</svg>
