<?xml version="1.0" encoding="iso-8859-1"?>
<!-- Modified: fill changed to white (#FFFFFF), size bumped to 36×36px -->
<!DOCTYPE svg PUBLIC "-//W3C//DTD SVG 1.1//EN"
	"http://www.w3.org/Graphics/SVG/1.1/DTD/svg11.dtd">
<svg
	xmlns="http://www.w3.org/2000/svg"
	xmlns:xlink="http://www.w3.org/1999/xlink"
	width="36px"
	height="36px"
	viewBox="0 0 305.002 305.002"
	fill="#FFFFFF"
	xml:space="preserve"
>
  <g>
    <g>
      <path d="M152.502,0.001C68.412,0.001,0,68.412,0,152.501s68.412,152.5,152.502,152.5
        c84.089,0,152.5-68.411,152.5-152.5S236.591,0.001,152.502,0.001z
         M152.502,280.001C82.197,280.001,25,222.806,25,152.501c0-70.304,57.197-127.5,127.502-127.5
        c70.304,0,127.5,57.196,127.5,127.5C280.002,222.806,222.806,280.001,152.502,280.001z"/>
		<path d="M218.473,93.97l-90.546,90.547l-41.398-41.398
        c-4.882-4.881-12.796-4.881-17.678,0
        c-4.881,4.882-4.881,12.796,0,17.678
        l50.237,50.237c2.441,2.44,5.64,3.661,8.839,3.661
        c3.199,0,6.398-1.221,8.839-3.661
        l99.385-99.385c4.881-4.882,4.881-12.796,0-17.678
        C231.269,89.089,223.354,89.089,218.473,93.97z"/>
    </g>
  </g>
</svg>