<?xml version="1.0" encoding="UTF-8" standalone="no"?><!DOCTYPE svg PUBLIC "-//W3C//DTD SVG 1.1//EN" "http://www.w3.org/Graphics/SVG/1.1/DTD/svg11.dtd"><svg width="100%" height="100%" viewBox="0 0 1029 429" version="1.1" xmlns="http://www.w3.org/2000/svg" xmlns:xlink="http://www.w3.org/1999/xlink" xml:space="preserve" xmlns:serif="http://www.serif.com/" style="fill-rule:evenodd;clip-rule:evenodd;stroke-linejoin:round;stroke-miterlimit:2;"><g><g><path d="M454.822,60.074c0,-0.561 -0.07,-1.121 -0.21,-1.681c-0.14,-0.561 -0.21,-1.261 -0.21,-2.102c-0,-1.401 -1.401,-3.293 -4.203,-5.674c-2.802,-2.382 -6.795,-4.694 -11.979,-6.935c-5.184,-2.242 -11.279,-4.134 -18.284,-5.675c-7.005,-1.541 -14.711,-2.311 -23.117,-2.311c-10.088,-0 -19.265,1.331 -27.531,3.993c-8.266,2.662 -15.481,6.654 -21.646,11.978c-6.165,5.324 -10.928,11.909 -14.291,19.755c-3.362,7.846 -5.044,16.813 -5.044,26.9c0,10.088 1.892,19.125 5.675,27.111c3.783,7.986 8.756,14.851 14.921,20.595c6.164,5.744 13.17,10.088 21.016,13.03c7.845,2.942 15.831,4.413 23.957,4.413c7.566,0 15.272,-0.981 23.118,-2.942c7.846,-1.962 14.991,-4.273 21.436,-6.935c6.445,-2.662 11.699,-5.534 15.762,-8.617c4.063,-3.082 6.094,-5.884 6.094,-8.406l0,-3.363c0,-1.681 -0.14,-3.082 -0.42,-4.203l4.623,-4.203l31.104,44.553l-4.204,2.102c-3.362,-1.401 -5.744,-2.102 -7.145,-2.102c-2.242,0 -5.884,1.261 -10.928,3.783c-5.044,2.522 -11.419,5.394 -19.124,8.617c-7.706,3.222 -16.673,5.954 -26.901,8.196c-10.227,2.242 -21.646,3.362 -34.255,3.362c-12.89,0 -25.639,-1.821 -38.249,-5.464c-12.609,-3.642 -23.818,-9.457 -33.625,-17.443c-9.807,-7.986 -17.793,-17.933 -23.958,-29.842c-6.164,-11.909 -9.247,-25.709 -9.247,-41.401c0,-15.692 3.083,-29.422 9.247,-41.191c6.165,-11.769 14.291,-21.646 24.378,-29.632c10.088,-7.986 21.647,-13.94 34.676,-17.863c13.03,-3.923 26.41,-5.885 40.14,-5.885c10.648,0 20.386,0.981 29.212,2.942c8.827,1.962 16.603,4.204 23.328,6.726c6.725,2.521 12.329,4.763 16.812,6.725c4.484,1.961 7.706,2.942 9.667,2.942c1.402,-0 2.592,-0.421 3.573,-1.261c0.981,-0.841 2.032,-1.541 3.152,-2.102l5.044,2.942l-27.74,39.93l-4.624,-3.362Z" style="fill:#171717;fill-rule:nonzero;"/><path d="M654.892,114.715l-34.046,-70.613l-29.842,70.613l63.888,-0Zm-140.385,69.772c3.362,-0.561 6.094,-2.172 8.196,-4.834c2.101,-2.662 3.713,-5.114 4.833,-7.355l62.627,-136.602c1.682,-3.923 3.013,-7.076 3.993,-9.458c0.981,-2.381 1.471,-4.693 1.471,-6.935c0,-1.681 -0.35,-2.732 -1.05,-3.152c-0.701,-0.42 -1.472,-0.911 -2.312,-1.471l-0,-7.566l63.467,0l0,7.566c-0.84,0.56 -1.751,0.981 -2.732,1.261c-0.98,0.28 -1.471,1.401 -1.471,3.362c0,1.682 0.631,3.713 1.892,6.095c1.261,2.382 2.591,5.114 3.993,8.196l68.09,142.907c1.402,2.522 2.943,4.343 4.624,5.464c1.681,1.121 3.503,1.961 5.464,2.522l0,7.565l-59.685,0l0,-6.304c1.401,-0 2.873,-0.421 4.414,-1.261c1.541,-0.841 2.311,-2.382 2.311,-4.624c0,-1.681 -0.28,-3.222 -0.84,-4.623c-0.561,-1.401 -1.261,-3.223 -2.102,-5.464l-11.348,-23.958l-89.948,-0l-11.768,22.697c-1.121,2.242 -2.032,4.273 -2.732,6.094c-0.701,1.822 -1.051,3.433 -1.051,4.834c-0,2.242 0.7,3.643 2.101,4.203c1.401,0.561 3.363,0.841 5.885,0.841l-0,7.565l-56.322,0l-0,-7.565Z" style="fill:#171717;fill-rule:nonzero;"/><path d="M889.847,86.974c27.461,-0 41.191,-8.687 41.191,-26.06c0,-7.005 -3.292,-12.539 -9.877,-16.602c-6.585,-4.063 -17.023,-6.095 -31.314,-6.095l-66.409,0l-0,48.757l66.409,-0Zm0.841,-79.86c24.939,0 44.413,4.133 58.424,12.399c14.01,8.267 21.015,22.347 21.015,42.242c0,7.566 -1.401,14.291 -4.203,20.175c-2.802,5.885 -6.515,10.998 -11.138,15.342c-4.624,4.343 -9.737,7.845 -15.342,10.507c-5.604,2.662 -11.348,4.694 -17.232,6.095l41.19,60.105c2.242,3.082 4.694,5.394 7.356,6.935c2.662,1.541 5.534,2.732 8.616,3.573l0,7.565l-64.308,0l0,-7.565c3.643,-0 5.464,-1.261 5.464,-3.783c0,-2.802 -2.101,-7.145 -6.304,-13.03l-33.205,-49.597l-58.424,0l0,60.105c0,2.242 0.911,3.853 2.732,4.834c1.821,0.98 3.573,1.471 5.254,1.471l0,7.565l-55.902,0l0,-7.565c5.044,-0 7.566,-2.102 7.566,-6.305l-0,-157.197c-0,-4.204 -2.522,-6.305 -7.566,-6.305l0,-7.566l116.007,0Z" style="fill:#171717;fill-rule:nonzero;"/><rect x="274.507" y="234.084" width="724.202" height="21.016" style="fill:#171717;fill-rule:nonzero;"/></g><g><path d="M333.624,351.779c5.568,-0 10.224,-1.008 13.968,-3.024c3.744,-2.016 5.616,-6.096 5.616,-12.24c0,-5.952 -1.872,-10.128 -5.616,-12.528c-3.744,-2.4 -8.4,-3.6 -13.968,-3.6l-48.384,-0l0,31.392l48.384,-0Zm-76.032,-43.2c0,-2.88 -2.4,-4.32 -7.2,-4.32l0,-5.184l83.808,-0c15.552,-0 27.216,2.784 34.992,8.352c7.776,5.568 11.664,15.264 11.664,29.088c0,13.824 -3.888,23.376 -11.664,28.656c-7.776,5.28 -19.44,7.92 -34.992,7.92l-48.96,-0l0,43.2c0,2.88 2.016,4.32 6.048,4.32l0,5.184l-40.896,-0l0,-5.184c4.8,-0 7.2,-1.44 7.2,-4.32l0,-107.712Z" style="fill:#171717;fill-rule:nonzero;"/><path d="M492.6,353.795c18.816,-0 28.224,-5.952 28.224,-17.856c0,-4.8 -2.256,-8.592 -6.768,-11.376c-4.512,-2.784 -11.664,-4.176 -21.456,-4.176l-45.504,-0l0,33.408l45.504,-0Zm0.576,-54.72c17.088,-0 30.432,2.832 40.032,8.496c9.6,5.664 14.4,15.312 14.4,28.944c0,5.184 -0.96,9.792 -2.88,13.824c-1.92,4.032 -4.464,7.536 -7.632,10.512c-3.168,2.976 -6.672,5.376 -10.512,7.2c-3.84,1.824 -7.776,3.216 -11.808,4.176l28.224,41.184c1.536,2.112 3.216,3.696 5.04,4.752c1.824,1.056 3.792,1.872 5.904,2.448l0,5.184l-44.064,-0l0,-5.184c2.496,-0 3.744,-0.864 3.744,-2.592c0,-1.92 -1.44,-4.896 -4.32,-8.928l-22.752,-33.984l-40.032,-0l0,41.184c0,1.536 0.624,2.64 1.872,3.312c1.248,0.672 2.448,1.008 3.6,1.008l0,5.184l-38.304,-0l0,-5.184c3.456,-0 5.184,-1.44 5.184,-4.32l0,-107.712c0,-2.88 -1.728,-4.32 -5.184,-4.32l0,-5.184l79.488,-0Z" style="fill:#171717;fill-rule:nonzero;"/><path d="M701.976,325.859c0,-3.648 -2.976,-5.472 -8.928,-5.472l-70.272,-0l0,28.8l44.352,-0c3.264,-0 5.664,-0.24 7.2,-0.72c1.536,-0.48 2.304,-1.776 2.304,-3.888l5.184,-0l0,30.528l-5.76,-0c0.576,-2.112 -0.192,-3.408 -2.304,-3.888c-2.112,-0.48 -5.088,-0.72 -8.928,-0.72l-42.048,-0l0,33.984l73.728,-0c2.304,-0 4.224,-0.528 5.76,-1.584c1.536,-1.056 2.304,-2.448 2.304,-4.176l5.184,-0l0,30.24l-5.184,-0c0,-1.728 -0.768,-2.688 -2.304,-2.88c-1.536,-0.192 -3.456,-0.288 -5.76,-0.288l-105.696,-0l0,-5.184c0.96,-0 1.92,-0.336 2.88,-1.008c0.96,-0.672 1.44,-1.776 1.44,-3.312l0,-107.712c0,-1.536 -0.48,-2.64 -1.44,-3.312c-0.96,-0.672 -1.92,-1.008 -2.88,-1.008l0,-5.184l102.24,-0c5.952,-0 8.928,-1.728 8.928,-5.184l5.184,-0l0,31.968l-5.184,-0Z" style="fill:#171717;fill-rule:nonzero;"/><path d="M759.288,381.731c0,0.768 -0.048,1.584 -0.144,2.448c-0.096,0.864 -0.144,1.776 -0.144,2.736c0,2.88 1.824,5.52 5.472,7.92c3.648,2.4 8.016,4.416 13.104,6.048c5.088,1.632 10.176,2.928 15.264,3.888c5.088,0.96 9.072,1.44 11.952,1.44c2.688,-0 6,-0.192 9.936,-0.576c3.936,-0.384 7.824,-1.2 11.664,-2.448c3.84,-1.248 7.104,-2.976 9.792,-5.184c2.688,-2.208 4.032,-5.136 4.032,-8.784c0,-4.224 -2.352,-7.296 -7.056,-9.216c-4.704,-1.92 -10.608,-3.408 -17.712,-4.464c-7.104,-1.056 -14.784,-2.112 -23.04,-3.168c-8.256,-1.056 -15.936,-2.784 -23.04,-5.184c-7.104,-2.4 -13.008,-5.856 -17.712,-10.368c-4.704,-4.512 -7.056,-10.896 -7.056,-19.152c0,-12.288 5.088,-22.08 15.264,-29.376c10.176,-7.296 24.48,-10.944 42.912,-10.944c9.024,-0 16.752,0.72 23.184,2.16c6.432,1.44 11.856,3.024 16.272,4.752c4.416,1.728 8.016,3.312 10.8,4.752c2.784,1.44 4.848,2.16 6.192,2.16c1.536,-0 2.688,-0.24 3.456,-0.72c0.768,-0.48 1.728,-1.008 2.88,-1.584l3.168,3.168l-14.4,27.072l-5.184,-1.728c-0.192,-1.152 -0.384,-2.304 -0.576,-3.456c-0.192,-1.152 -1.056,-2.304 -2.592,-3.456c-3.84,-3.264 -9.792,-6.048 -17.856,-8.352c-8.064,-2.304 -17.088,-3.456 -27.072,-3.456c-3.84,-0 -7.488,0.24 -10.944,0.72c-3.456,0.48 -6.528,1.296 -9.216,2.448c-2.688,1.152 -4.8,2.64 -6.336,4.464c-1.536,1.824 -2.304,4.08 -2.304,6.768c0,4.224 2.352,7.248 7.056,9.072c4.704,1.824 10.608,3.264 17.712,4.32c7.104,1.056 14.784,2.112 23.04,3.168c8.256,1.056 15.936,2.832 23.04,5.328c7.104,2.496 13.008,6.144 17.712,10.944c4.704,4.8 7.056,11.424 7.056,19.872c0,8.448 -2.064,15.36 -6.192,20.736c-4.128,5.376 -9.264,9.6 -15.408,12.672c-6.144,3.072 -12.912,5.088 -20.304,6.048c-7.392,0.96 -14.352,1.44 -20.88,1.44c-6.528,-0 -13.008,-0.624 -19.44,-1.872c-6.432,-1.248 -12.288,-2.688 -17.568,-4.32c-5.28,-1.632 -9.744,-3.168 -13.392,-4.608c-3.648,-1.44 -5.856,-2.16 -6.624,-2.16c-1.344,-0 -2.496,0.576 -3.456,1.728l-4.032,-2.88l13.248,-32.256l5.472,1.44Z" style="fill:#171717;fill-rule:nonzero;"/><path d="M919.416,381.731c0,0.768 -0.048,1.584 -0.144,2.448c-0.096,0.864 -0.144,1.776 -0.144,2.736c0,2.88 1.824,5.52 5.472,7.92c3.648,2.4 8.016,4.416 13.104,6.048c5.088,1.632 10.176,2.928 15.264,3.888c5.088,0.96 9.072,1.44 11.952,1.44c2.688,-0 6,-0.192 9.936,-0.576c3.936,-0.384 7.824,-1.2 11.664,-2.448c3.84,-1.248 7.104,-2.976 9.792,-5.184c2.688,-2.208 4.032,-5.136 4.032,-8.784c0,-4.224 -2.352,-7.296 -7.056,-9.216c-4.704,-1.92 -10.608,-3.408 -17.712,-4.464c-7.104,-1.056 -14.784,-2.112 -23.04,-3.168c-8.256,-1.056 -15.936,-2.784 -23.04,-5.184c-7.104,-2.4 -13.008,-5.856 -17.712,-10.368c-4.704,-4.512 -7.056,-10.896 -7.056,-19.152c0,-12.288 5.088,-22.08 15.264,-29.376c10.176,-7.296 24.48,-10.944 42.912,-10.944c9.024,-0 16.752,0.72 23.184,2.16c6.432,1.44 11.856,3.024 16.272,4.752c4.416,1.728 8.016,3.312 10.8,4.752c2.784,1.44 4.848,2.16 6.192,2.16c1.536,-0 2.688,-0.24 3.456,-0.72c0.768,-0.48 1.728,-1.008 2.88,-1.584l3.168,3.168l-14.4,27.072l-5.184,-1.728c-0.192,-1.152 -0.384,-2.304 -0.576,-3.456c-0.192,-1.152 -1.056,-2.304 -2.592,-3.456c-3.84,-3.264 -9.792,-6.048 -17.856,-8.352c-8.064,-2.304 -17.088,-3.456 -27.072,-3.456c-3.84,-0 -7.488,0.24 -10.944,0.72c-3.456,0.48 -6.528,1.296 -9.216,2.448c-2.688,1.152 -4.8,2.64 -6.336,4.464c-1.536,1.824 -2.304,4.08 -2.304,6.768c0,4.224 2.352,7.248 7.056,9.072c4.704,1.824 10.608,3.264 17.712,4.32c7.104,1.056 14.784,2.112 23.04,3.168c8.256,1.056 15.936,2.832 23.04,5.328c7.104,2.496 13.008,6.144 17.712,10.944c4.704,4.8 7.056,11.424 7.056,19.872c0,8.448 -2.064,15.36 -6.192,20.736c-4.128,5.376 -9.264,9.6 -15.408,12.672c-6.144,3.072 -12.912,5.088 -20.304,6.048c-7.392,0.96 -14.352,1.44 -20.88,1.44c-6.528,-0 -13.008,-0.624 -19.44,-1.872c-6.432,-1.248 -12.288,-2.688 -17.568,-4.32c-5.28,-1.632 -9.744,-3.168 -13.392,-4.608c-3.648,-1.44 -5.856,-2.16 -6.624,-2.16c-1.344,-0 -2.496,0.576 -3.456,1.728l-4.032,-2.88l13.248,-32.256l5.472,1.44Z" style="fill:#171717;fill-rule:nonzero;"/></g><path d="M92.437,146.286c-2.261,0 -4.452,0.734 -6.572,2.202c-2.12,1.468 -3.18,3.67 -3.18,6.606c-0,2.569 0.777,5.688 2.332,9.358c1.555,3.67 3.604,7.523 6.148,11.56l34.77,56.699l35.194,-57.8c3.11,-5.138 5.795,-9.542 8.057,-13.211c2.261,-3.67 3.392,-6.423 3.392,-8.258c-0,-4.77 -3.816,-7.156 -11.449,-7.156l0,-9.909l86.077,0l0,9.909c-6.784,0 -11.802,0.551 -15.053,1.652c-3.251,1.101 -6.007,3.486 -8.268,7.156l-73.356,117.802l70.388,116.702c1.13,2.202 2.473,4.77 4.028,7.706c1.554,2.936 3.463,5.78 5.724,8.533c2.262,2.752 4.735,5.138 7.42,7.156c2.686,2.018 5.725,3.028 9.117,3.028l0,9.908l-85.229,0l0,-9.908c4.523,-0 6.785,-2.936 6.785,-8.808c-0,-2.569 -0.919,-5.505 -2.757,-8.808c-1.837,-3.303 -4.028,-6.972 -6.572,-11.009l-39.01,-66.058l-41.979,68.26c-1.413,2.568 -3.18,5.596 -5.3,9.082c-2.12,3.487 -3.18,6.698 -3.18,9.634c-0,5.138 2.685,7.707 8.056,7.707l0,9.908l-78.02,0l0,-9.908c5.371,-0 9.541,-0.734 12.509,-2.202c2.968,-1.468 6.007,-4.771 9.116,-9.909l74.204,-122.757l-68.691,-113.398c-4.806,-8.074 -9.188,-13.67 -13.145,-16.79c-3.958,-3.119 -8.622,-4.679 -13.993,-4.679l0,-9.909l92.437,0l0,9.909Z" style="fill:#171717;fill-rule:nonzero;"/></g><g><path d="M299.573,184.258c-0,0 15.978,10.384 7.615,15.232c-8.365,4.836 -7.601,11.764 -7.601,11.764l42.634,-0.983c-3.414,-7.134 -5.386,-14.967 -5.386,-23.242c0,-32.086 28.636,-58.174 63.843,-58.174c35.203,0 63.842,26.086 63.842,58.174c-0,7.573 -1.716,14.79 -4.621,21.432c79.638,-0.408 234.552,-1.221 334.637,-1.828c-2.408,-6.158 -3.967,-12.691 -3.967,-19.597c0,-32.45 28.978,-58.865 64.591,-58.865c35.625,-0 64.603,26.415 64.603,58.865c-0,5.802 -1.222,11.312 -2.942,16.622c38.75,-3.829 96.424,-11.081 96.424,-11.081l-9.12,-7.846l16.736,-12.477c17.233,-15.232 -11.154,-27.699 -11.154,-27.699c10.13,-26.318 -6.587,-44.322 -6.587,-44.322c12.172,-6.47 -0.502,-12.93 -0.502,-12.93l12.162,-14.316l-47.124,-11.544c-28.879,-2.305 -56.241,14.78 -56.241,14.78c0,0 -94.873,-50.857 -115.203,-52.512c2.087,-1.428 4.215,-2.743 6.245,-4.296c12.068,-9.166 -5.239,-24.751 -17.196,-15.668c-11.795,8.965 -25.476,15.49 -39.712,20.574c-58.569,1.51 -148.042,5.255 -162.975,11.736c-21.279,9.228 -89.685,54.936 -89.685,54.936c-159.095,9.697 -193.778,40.634 -193.778,40.634l5.487,24.01c-32.755,13.846 -5.025,28.621 -5.025,28.621Z" style="fill:#171717;fill-rule:nonzero;stroke:#171717;stroke-width:2px;"/><path d="M400.678,139.936c-28.543,0 -51.683,21.081 -51.683,47.093c0,8.372 2.601,16.121 6.797,22.924c8.856,14.361 25.527,24.164 44.886,24.164c19.992,-0 37.141,-10.453 45.72,-25.59c3.674,-6.47 5.962,-13.71 5.962,-21.498c-0,-26.013 -23.138,-47.093 -51.682,-47.093Z" style="fill:#171717;fill-rule:nonzero;"/><path d="M855.174,139.246c-28.964,0 -52.431,21.403 -52.431,47.783c0,6.969 1.72,13.548 4.669,19.52c8.207,16.629 26.456,28.252 47.762,28.252c22.043,0 40.828,-12.415 48.581,-29.955c2.446,-5.514 3.86,-11.51 3.86,-17.817c0.014,-26.391 -23.476,-47.783 -52.441,-47.783Z" style="fill:#171717;fill-rule:nonzero;"/></g><path d="M402.611,234.084c-0.642,0.022 -1.286,0.033 -1.933,0.033c-0.648,-0 -1.292,-0.011 -1.933,-0.033l3.866,-0Zm461.653,-0c-2.951,0.471 -5.988,0.717 -9.09,0.717c-3.099,0 -6.133,-0.246 -9.081,-0.717l18.171,-0Zm-412.13,-51.492c-7.232,2.861 -15.512,5.314 -24.843,7.359c-10.227,2.242 -21.646,3.362 -34.255,3.362c-5.736,0 -11.445,-0.36 -17.126,-1.082c-7.084,-0.899 -14.125,-2.36 -21.123,-4.382c-1.96,-0.566 -3.887,-1.185 -5.779,-1.856c0.276,-11.684 5.222,-22.32 13.205,-30.419c0.029,0.015 0.058,0.031 0.086,0.046c2.445,1.304 4.985,2.45 7.62,3.438c7.845,2.942 15.831,4.413 23.957,4.413c5.87,0 11.824,-0.59 17.863,-1.771c1.744,-0.341 3.496,-0.731 5.255,-1.171c7.468,-1.867 14.301,-4.051 20.499,-6.553c8.126,7.514 13.501,17.503 14.641,28.616Zm-99.769,-33.557c-8.292,8.743 -13.779,19.752 -15.177,31.858c-0.631,-0.325 -1.258,-0.657 -1.88,-0.995c-5.001,-2.721 -9.716,-5.885 -14.146,-9.492c-6.705,-5.459 -12.558,-11.835 -17.56,-19.128l-4.491,-19.651c0,0 7.521,-6.708 31.625,-14.857c0.855,3.013 1.937,5.901 3.246,8.663c3.783,7.986 8.756,14.851 14.921,20.595c1.126,1.049 2.28,2.052 3.462,3.007Zm302.347,-121.125c0.869,1.74 1.77,3.634 2.702,5.684l68.09,142.907c1.402,2.522 2.943,4.343 4.624,5.464c1.681,1.121 3.503,1.961 5.464,2.522l0,7.565l-59.685,0l0,-6.304c1.401,-0 2.873,-0.421 4.414,-1.261c1.541,-0.841 2.311,-2.382 2.311,-4.624c0,-1.681 -0.28,-3.222 -0.84,-4.623c-0.561,-1.401 -1.261,-3.223 -2.102,-5.464l-11.348,-23.958l-89.948,-0l-11.768,22.697c-1.121,2.242 -2.032,4.273 -2.732,6.094c-0.701,1.822 -1.051,3.433 -1.051,4.834c-0,2.242 0.7,3.643 2.101,4.203c1.401,0.561 3.363,0.841 5.885,0.841l-0,7.565l-56.322,0l-0,-7.565c3.362,-0.561 6.094,-2.172 8.196,-4.834c2.101,-2.662 3.713,-5.114 4.833,-7.355l62.627,-136.602c0.273,-0.637 0.536,-1.253 0.791,-1.848c13.034,-2.433 36.834,-4.4 63.758,-5.938Zm136.128,164.142l-16.159,0l0,-7.565c5.044,-0 7.566,-2.102 7.566,-6.305l-0,-157.197c-0,-4.204 -2.522,-6.305 -7.566,-6.305l0,-3.8c2.005,-1.201 3.973,-2.455 5.898,-3.766l24.346,0c2.49,3.764 2.45,8.565 -2.468,12.301c-2.03,1.553 -4.158,2.868 -6.245,4.296c6.822,0.555 22.038,6.651 39.247,14.506l-12.021,0l-0,48.757l66.409,-0c23.818,-0 37.307,-6.535 40.466,-19.605c10.262,-3.744 23.632,-7.02 37.343,-5.926l2.471,0.605c-0.036,7.446 -1.437,14.074 -4.203,19.882c-2.802,5.885 -6.515,10.998 -11.138,15.342c-4.624,4.343 -9.737,7.845 -15.342,10.507c-5.604,2.662 -11.348,4.694 -17.232,6.095l41.19,60.105c2.242,3.082 4.694,5.394 7.356,6.935c2.662,1.541 5.534,2.732 8.616,3.573l0,7.565l-59.907,0c0.191,-1.648 0.296,-3.32 0.296,-5.016c-0,-1.303 -0.047,-2.596 -0.139,-3.878c0.604,-0.609 0.906,-1.427 0.906,-2.454c0,-1.746 -0.815,-4.09 -2.447,-7.032c-3.147,-12.304 -10.543,-23.141 -20.696,-31.149l-16.366,-24.446l-58.424,0l0,18.138c-19.144,10.229 -32.028,29.183 -32.028,50.821c0,1.694 0.094,3.367 0.271,5.016Zm-342.221,-43.404c2.056,-1.189 3.914,-2.412 5.573,-3.671c4.063,-3.082 6.094,-5.884 6.094,-8.406l0,-3.363c0,-1.681 -0.14,-3.082 -0.42,-4.203l4.623,-4.203l31.104,44.553l-4.204,2.102c-3.362,-1.401 -5.744,-2.102 -7.145,-2.102c-2.242,0 -5.884,1.261 -10.928,3.783c-2.798,1.399 -6.006,2.906 -9.623,4.521c-1.963,-11.008 -7.327,-20.987 -15.074,-29.011Zm354.424,43.404c-0.198,-1.649 -0.3,-3.324 -0.3,-5.023c0,-15.166 7.756,-28.687 19.854,-37.442l0,28.595c0,2.242 0.911,3.853 2.732,4.834c1.821,0.98 3.573,1.471 5.254,1.471l0,7.565l-27.54,0Zm-148.151,-77.337l-34.046,-70.613l-29.842,70.613l63.888,-0Z" style="fill:#fff;"/><path d="M398.779,233.084l3.798,0l0.034,-0c0.545,-0 0.99,0.437 0.999,0.983c0.01,0.546 -0.42,0.998 -0.966,1.016c-0.011,0.001 -0.022,0.001 -0.033,0.001c-0.642,0.022 -1.286,0.033 -1.933,0.033c-0.648,-0 -1.292,-0.011 -1.933,-0.033c-0.011,-0 -0.023,-0 -0.034,-0.001c-0.545,-0.018 -0.975,-0.47 -0.966,-1.016c0.009,-0.546 0.454,-0.983 1,-0.983l0.034,0Zm465.643,1.987c-3.002,0.48 -6.092,0.73 -9.248,0.73c-3.153,0 -6.24,-0.25 -9.239,-0.73c-0.515,-0.082 -0.88,-0.546 -0.839,-1.066c0.042,-0.52 0.476,-0.921 0.997,-0.921l18.171,-0c0.522,-0 0.956,0.401 0.997,0.921c0.042,0.52 -0.324,0.984 -0.839,1.066Zm-411.92,-51.549c-7.277,2.879 -15.608,5.348 -24.996,7.406c-10.292,2.255 -21.782,3.385 -34.47,3.385c-5.779,0 -11.529,-0.363 -17.252,-1.09c-7.135,-0.906 -14.226,-2.377 -21.274,-4.413c-1.98,-0.572 -3.925,-1.197 -5.837,-1.875c-0.407,-0.144 -0.675,-0.534 -0.665,-0.966c0.283,-11.944 5.333,-22.818 13.493,-31.097c0.311,-0.316 0.793,-0.389 1.184,-0.18c0.028,0.016 0.057,0.031 0.085,0.046c2.407,1.283 4.907,2.411 7.5,3.383c7.731,2.9 15.599,4.35 23.606,4.35c5.807,0 11.697,-0.584 17.671,-1.752c1.728,-0.338 3.462,-0.725 5.204,-1.16c7.42,-1.855 14.209,-4.025 20.368,-6.51c0.359,-0.145 0.769,-0.07 1.053,0.193c8.304,7.679 13.792,17.891 14.956,29.248c0.046,0.445 -0.21,0.867 -0.626,1.032Zm-90.093,-26.714c-7.34,7.68 -11.935,17.597 -12.378,28.484c1.652,0.572 3.33,1.104 5.034,1.597c6.947,2.007 13.938,3.457 20.971,4.35c5.639,0.716 11.306,1.074 17,1.074c12.53,0 23.878,-1.111 34.041,-3.339c8.968,-1.965 16.961,-4.309 23.978,-7.034c-1.25,-10.355 -6.272,-19.673 -13.78,-26.799c-6.081,2.419 -12.76,4.538 -20.039,6.358c-1.775,0.444 -3.544,0.838 -5.305,1.183c-6.104,1.193 -12.122,1.789 -18.055,1.789c-8.245,0 -16.348,-1.492 -24.309,-4.477c-2.468,-0.925 -4.854,-1.987 -7.158,-3.186Zm-9.319,-7.085c-8.142,8.586 -13.536,19.396 -14.909,31.284c-0.038,0.327 -0.233,0.613 -0.523,0.768c-0.289,0.155 -0.636,0.157 -0.928,0.007c-0.638,-0.328 -1.271,-0.664 -1.9,-1.006c-5.055,-2.75 -9.822,-5.948 -14.299,-9.594c-6.779,-5.52 -12.697,-11.966 -17.754,-19.339c-0.071,-0.104 -0.122,-0.22 -0.15,-0.343l-4.491,-19.65c-0.081,-0.355 0.038,-0.726 0.31,-0.969c-0,0 7.592,-6.817 31.969,-15.058c0.26,-0.088 0.544,-0.065 0.786,0.062c0.242,0.127 0.422,0.348 0.497,0.612c0.84,2.959 1.903,5.795 3.187,8.508c3.727,7.867 8.626,14.632 14.7,20.291c1.108,1.033 2.244,2.021 3.408,2.962c0.217,0.175 0.351,0.433 0.369,0.711c0.019,0.279 -0.08,0.552 -0.272,0.754Zm-2.182,-0.591c-0.913,-0.763 -1.808,-1.554 -2.687,-2.372c-6.256,-5.83 -11.304,-12.795 -15.143,-20.899c-1.185,-2.502 -2.188,-5.104 -3.008,-7.808c-19.827,6.798 -27.959,12.497 -29.845,13.958c-0,0 4.309,18.857 4.311,18.86c4.923,7.147 10.675,13.4 17.258,18.76c4.381,3.568 9.045,6.697 13.992,9.388c0.197,0.108 0.396,0.215 0.594,0.32c1.627,-11.399 6.82,-21.791 14.528,-30.207Zm304.698,-121.669c0.874,1.747 1.778,3.65 2.714,5.708c-0,0 68.073,142.87 68.083,142.889c1.302,2.333 2.719,4.032 4.28,5.073c1.595,1.063 3.323,1.861 5.184,2.392c0.429,0.123 0.725,0.515 0.725,0.962l0,7.565c0,0.553 -0.448,1 -1,1l-59.685,0c-0.552,0 -1,-0.447 -1,-1l0,-6.304c0,-0.553 0.448,-1 1,-1c1.251,-0 2.56,-0.389 3.935,-1.139c1.238,-0.675 1.79,-1.945 1.79,-3.746c0,-1.546 -0.253,-2.963 -0.769,-4.252c-0.559,-1.398 -1.257,-3.213 -2.094,-5.445l-11.06,-23.348l-88.707,-0l-11.485,22.15c-1.103,2.207 -2,4.207 -2.69,6c-0.649,1.687 -0.984,3.177 -0.984,4.475c-0,1.713 0.402,2.846 1.473,3.275c1.312,0.524 3.151,0.769 5.513,0.769c0.552,-0 1,0.448 1,1l-0,7.565c-0,0.553 -0.448,1 -1,1l-56.322,0c-0.553,0 -1,-0.447 -1,-1l-0,-7.565c-0,-0.489 0.353,-0.906 0.835,-0.987c3.108,-0.518 5.634,-2.006 7.576,-4.466c2.048,-2.595 3.622,-4.984 4.717,-7.169l62.614,-136.575c0.271,-0.631 0.532,-1.243 0.785,-1.835c0.131,-0.308 0.407,-0.529 0.736,-0.59c13.06,-2.438 36.908,-4.412 63.885,-5.954c0.398,-0.022 0.772,0.194 0.951,0.552Zm-1.496,1.483c-26.241,1.509 -49.44,3.425 -62.447,5.788c-0.189,0.441 -0.382,0.893 -0.581,1.355c-0.003,0.008 -0.006,0.016 -0.01,0.023l-62.627,136.602c-0.004,0.011 -0.009,0.021 -0.014,0.031c-1.147,2.294 -2.793,4.804 -4.943,7.528c-2.084,2.64 -4.745,4.32 -7.981,5.038l-0,5.741c-0,0 54.322,0 54.322,0c-0,0 -0,-5.581 -0,-5.581c-2.206,-0.07 -3.957,-0.377 -5.256,-0.896c-1.733,-0.694 -2.73,-2.359 -2.73,-5.132c-0,-1.504 0.365,-3.237 1.117,-5.193c0.711,-1.847 1.634,-3.908 2.771,-6.182c0.002,-0.005 0.005,-0.009 0.007,-0.013l11.769,-22.697c0.172,-0.332 0.514,-0.54 0.887,-0.54l89.948,-0c0.386,-0 0.738,0.223 0.903,0.572l11.349,23.958c0.012,0.025 0.023,0.051 0.033,0.077c0.837,2.233 1.535,4.048 2.093,5.443c0.606,1.514 0.912,3.179 0.912,4.995c0,2.684 -0.988,4.495 -2.832,5.502c-1.345,0.733 -2.644,1.169 -3.893,1.321c0,0 0,4.366 0,4.366l57.685,0c0,0 0,-5.825 0,-5.825c-1.787,-0.581 -3.46,-1.391 -5.019,-2.43c-1.792,-1.195 -3.449,-3.123 -4.943,-5.811c-0.01,-0.018 -0.019,-0.036 -0.028,-0.055l-68.091,-142.907c-0.003,-0.005 -0.005,-0.011 -0.008,-0.016c-0.822,-1.809 -1.62,-3.496 -2.393,-5.062Zm0.782,86.769l-63.888,-0c-0.335,-0 -0.648,-0.168 -0.834,-0.448c-0.185,-0.279 -0.218,-0.633 -0.087,-0.942l29.842,-70.612c0.153,-0.362 0.504,-0.601 0.896,-0.611c0.393,-0.01 0.755,0.212 0.926,0.566l34.045,70.612c0.15,0.31 0.129,0.675 -0.053,0.966c-0.183,0.292 -0.503,0.469 -0.847,0.469Zm-1.593,-2l-32.393,-67.186l-28.394,67.186l60.787,-0Zm137.541,79.337l-16.159,0c-0.552,0 -1,-0.447 -1,-1l0,-7.565c0,-0.552 0.448,-1 1,-1c2.232,-0 3.919,-0.415 5.034,-1.345c1.052,-0.876 1.532,-2.208 1.532,-3.96l-0,-157.197c-0,-1.753 -0.48,-3.085 -1.532,-3.961c-1.115,-0.929 -2.802,-1.344 -5.034,-1.344c-0.552,-0 -1,-0.448 -1,-1l0,-3.8c0,-0.351 0.185,-0.677 0.486,-0.857c1.989,-1.192 3.94,-2.435 5.849,-3.735c0.166,-0.113 0.362,-0.174 0.563,-0.174l24.346,0c0.336,0 0.649,0.169 0.834,0.449c1.385,2.093 2.048,4.479 1.699,6.857c-0.345,2.358 -1.684,4.731 -4.396,6.791c-1.353,1.035 -2.75,1.966 -4.148,2.895c7.721,1.56 21.553,7.169 36.96,14.202c0.428,0.195 0.662,0.662 0.562,1.122c-0.1,0.46 -0.507,0.787 -0.977,0.787c-0,0 -11.021,0 -11.021,0l-0,46.757l65.409,-0c23.179,-0 36.42,-6.121 39.494,-18.84c0.079,-0.325 0.315,-0.589 0.63,-0.704c10.377,-3.786 23.899,-7.091 37.765,-5.984c0.053,0.004 0.106,0.013 0.158,0.026l2.471,0.605c0.449,0.11 0.764,0.514 0.762,0.976c-0.037,7.606 -1.475,14.374 -4.3,20.307c-2.857,5.999 -6.643,11.212 -11.356,15.64c-4.701,4.416 -9.9,7.976 -15.598,10.683c-5.22,2.479 -10.56,4.418 -16.021,5.816c0,-0 40.367,58.902 40.367,58.902c2.147,2.951 4.49,5.171 7.04,6.648c2.588,1.498 5.381,2.656 8.378,3.473c0.435,0.119 0.737,0.514 0.737,0.965l0,7.565c0,0.553 -0.447,1 -1,1l-59.907,0c-0.285,0 -0.556,-0.121 -0.746,-0.334c-0.19,-0.213 -0.28,-0.497 -0.247,-0.781c0.187,-1.611 0.289,-3.244 0.289,-4.901c-0,-1.279 -0.046,-2.548 -0.136,-3.807c-0.021,-0.288 0.084,-0.571 0.287,-0.776c0.429,-0.431 0.616,-1.021 0.616,-1.749c0,-1.629 -0.799,-3.802 -2.321,-6.547c-0.042,-0.074 -0.073,-0.154 -0.095,-0.237c-3.093,-12.094 -10.367,-22.741 -20.346,-30.612c-0.083,-0.065 -0.154,-0.142 -0.212,-0.229l-16.069,-24.002l-56.89,0l0,17.138c0,0.369 -0.203,0.708 -0.529,0.882c-18.816,10.054 -31.499,28.672 -31.499,49.939c0,1.658 0.092,3.295 0.266,4.91c0.03,0.282 -0.061,0.564 -0.251,0.775c-0.189,0.211 -0.46,0.331 -0.744,0.331Zm-1.1,-2c-0.112,-1.324 -0.171,-2.663 -0.171,-4.016c0,-21.809 12.849,-40.949 32.028,-51.417l0,-17.542c0,-0.552 0.448,-1 1,-1l58.424,0c0.333,0 0.645,0.167 0.831,0.444c-0,-0 16.278,24.315 16.276,24.313c10.23,8.109 17.686,19.051 20.89,31.463c1.7,3.088 2.512,5.566 2.512,7.407c0,1.134 -0.304,2.064 -0.88,2.798c0.075,1.169 0.113,2.348 0.113,3.534c-0,1.354 -0.065,2.692 -0.186,4.016c-0,0 57.797,0 57.797,0c0,0 0,-5.809 0.001,-5.809c-2.89,-0.848 -5.596,-2.003 -8.118,-3.463c-2.771,-1.605 -5.33,-4.004 -7.663,-7.213c-0.006,-0.007 -0.011,-0.015 -0.017,-0.023l-41.19,-60.105c-0.187,-0.271 -0.227,-0.617 -0.108,-0.925c0.118,-0.307 0.38,-0.537 0.701,-0.613c5.817,-1.385 11.495,-3.393 17.035,-6.025c5.511,-2.618 10.54,-6.062 15.086,-10.333c4.533,-4.259 8.173,-9.273 10.92,-15.043c2.609,-5.478 3.97,-11.702 4.097,-18.669c-0,-0 -1.621,-0.398 -1.631,-0.398c-13.306,-1.044 -26.278,2.078 -36.335,5.696c-3.473,13.077 -17.167,19.845 -41.305,19.845l-66.409,-0c-0.553,-0 -1,-0.448 -1,-1l-0,-48.757c-0,-0.552 0.447,-1 1,-1c-0,0 7.384,0 7.385,0.001c-15.301,-6.856 -28.489,-12.005 -34.692,-12.51c-0.422,-0.034 -0.776,-0.331 -0.885,-0.74c-0.109,-0.409 0.052,-0.843 0.402,-1.082c2.072,-1.418 4.186,-2.724 6.201,-4.265l0.003,-0.002c2.206,-1.676 3.346,-3.571 3.627,-5.489c0.254,-1.729 -0.19,-3.458 -1.108,-5.016c0,0 -23.484,0 -23.483,-0.001c-1.704,1.154 -3.441,2.264 -5.207,3.332c0,0 0,2.263 0,2.263c2.315,0.135 4.08,0.751 5.315,1.78c1.47,1.225 2.251,3.045 2.251,5.497l-0,157.197c-0,2.451 -0.781,4.271 -2.251,5.497c-1.235,1.028 -3,1.644 -5.315,1.779l0,5.594l14.059,0Zm-341.621,-43.27c2.017,-1.166 3.84,-2.366 5.468,-3.601c1.938,-1.47 3.397,-2.868 4.366,-4.204c0.869,-1.199 1.333,-2.327 1.333,-3.406l0,-3.363c0,-1.584 -0.126,-2.904 -0.39,-3.96c-0.09,-0.357 0.025,-0.735 0.297,-0.983l4.624,-4.203c0.212,-0.193 0.498,-0.286 0.784,-0.254c0.286,0.032 0.544,0.186 0.708,0.422l31.104,44.553c0.166,0.238 0.22,0.537 0.149,0.819c-0.072,0.281 -0.262,0.518 -0.522,0.648l-4.203,2.101c-0.26,0.13 -0.564,0.141 -0.832,0.029c-3.186,-1.327 -5.433,-2.025 -6.761,-2.025c-2.153,0 -5.636,1.256 -10.481,3.678c-2.809,1.405 -6.03,2.918 -9.662,4.539c-0.281,0.125 -0.604,0.114 -0.876,-0.03c-0.272,-0.144 -0.463,-0.405 -0.517,-0.708c-1.928,-10.811 -7.2,-20.61 -14.808,-28.492c-0.214,-0.221 -0.314,-0.529 -0.271,-0.833c0.043,-0.305 0.223,-0.573 0.49,-0.727Zm2.088,1.089c7.128,7.694 12.144,17.063 14.231,27.357c3.135,-1.413 5.945,-2.741 8.431,-3.984c5.243,-2.622 9.045,-3.889 11.375,-3.889c1.415,0 3.79,0.649 7.106,2.004l2.76,-1.38l-29.79,-42.672c0,0 -3.353,3.048 -3.353,3.048c0.211,1.075 0.319,2.36 0.319,3.853l0,3.363c0,2.735 -2.083,5.86 -6.49,9.203c-1.393,1.056 -2.922,2.089 -4.589,3.097Zm351.843,43.3c-0.202,-1.688 -0.307,-3.403 -0.307,-5.142c0,-15.492 7.91,-29.309 20.268,-38.252c0.304,-0.22 0.706,-0.251 1.041,-0.08c0.334,0.171 0.545,0.515 0.545,0.89l0,28.595c0,1.828 0.721,3.154 2.206,3.953c1.658,0.893 3.249,1.352 4.78,1.352c0.552,-0 1,0.448 1,1l0,7.565c0,0.553 -0.448,1 -1,1l-27.54,0c-0.507,0 -0.933,-0.378 -0.993,-0.881Zm1.89,-1.119l25.643,0c0,0 0,-5.616 0,-5.616c-1.524,-0.156 -3.102,-0.664 -4.728,-1.54c-2.158,-1.162 -3.258,-3.058 -3.258,-5.714c0,0 0,-26.589 0.001,-26.589c-10.927,8.575 -17.855,21.269 -17.855,35.436c0,1.357 0.067,2.698 0.197,4.023Z" style="fill:#fff;"/></svg>