<?xml version="1.0" encoding="UTF-8" standalone="no"?><!DOCTYPE svg PUBLIC "-//W3C//DTD SVG 1.1//EN" "http://www.w3.org/Graphics/SVG/1.1/DTD/svg11.dtd"><svg width="100%" height="100%" viewBox="0 0 23 23" version="1.1" xmlns="http://www.w3.org/2000/svg" xmlns:xlink="http://www.w3.org/1999/xlink" xml:space="preserve" xmlns:serif="http://www.serif.com/" style="fill-rule:evenodd;clip-rule:evenodd;stroke-linejoin:round;stroke-miterlimit:2;"><path d="M11.211,0c6.188,0 11.212,5.024 11.212,11.211c-0,6.188 -5.024,11.212 -11.212,11.212c-6.187,-0 -11.211,-5.024 -11.211,-11.212c-0,-6.187 5.024,-11.211 11.211,-11.211Zm-6.933,19.319c-2.288,-1.953 -3.739,-4.858 -3.739,-8.099c-0,-5.876 4.77,-10.647 10.647,-10.647c5.154,-0 9.457,3.67 10.437,8.537c-1.421,0.911 -2.581,1.686 -2.581,1.686c-6.843,0.417 -10.827,1.323 -13.053,2.075c-0.13,-0.459 -0.196,-0.954 -0.196,-1.485c0,-0.812 0.136,-1.533 0.406,-2.165c0.271,-0.632 0.655,-1.162 1.151,-1.59c0.496,-0.429 1.077,-0.75 1.742,-0.964c0.666,-0.215 1.404,-0.322 2.216,-0.322c0.677,0 1.297,0.062 1.861,0.186c0.564,0.124 1.055,0.277 1.472,0.457c0.417,0.18 0.739,0.366 0.964,0.558c0.226,0.192 0.339,0.344 0.339,0.457c-0,0.068 0.005,0.124 0.016,0.169c0.012,0.045 0.017,0.09 0.017,0.135l0.373,0.271l2.233,-3.214l-0.406,-0.237c-0.091,0.045 -0.175,0.102 -0.254,0.169c-0.079,0.068 -0.175,0.102 -0.288,0.102c-0.158,-0 -0.417,-0.079 -0.778,-0.237c-0.361,-0.158 -0.812,-0.338 -1.353,-0.541c-0.542,-0.203 -1.168,-0.384 -1.878,-0.542c-0.711,-0.158 -1.494,-0.237 -2.351,-0.237c-1.106,0 -2.183,0.158 -3.232,0.474c-1.048,0.316 -1.979,0.795 -2.791,1.438c-0.812,0.643 -1.466,1.438 -1.962,2.385c-0.496,0.948 -0.745,2.053 -0.745,3.316c0,1.263 0.249,2.374 0.745,3.333c0.157,0.303 0.328,0.59 0.515,0.862l0.08,0.351c-2.637,1.114 -0.405,2.304 -0.405,2.304c0,-0 0.916,0.595 0.798,1.015Zm5.107,2.396c-1.276,-0.218 -2.475,-0.663 -3.554,-1.292l1.082,-0.025c-0.274,-0.575 -0.433,-1.205 -0.433,-1.871c-0,-0.167 0.01,-0.332 0.028,-0.494c0.305,0.157 0.622,0.293 0.952,0.41c-0.001,0.028 -0.001,0.056 -0.001,0.084c-0,0.674 0.209,1.297 0.547,1.845c0.335,0.543 0.809,1.005 1.379,1.343Zm7.441,-1.465c-0.776,0.486 -1.619,0.874 -2.511,1.149c0.402,-0.318 0.737,-0.706 0.984,-1.142c0.296,-0.52 0.48,-1.103 0.48,-1.73c0,-0.121 -0.006,-0.24 -0.018,-0.357c0.056,-0.023 0.111,-0.045 0.166,-0.068c0.276,-0.115 0.531,-0.225 0.764,-0.329c0.044,0.245 0.067,0.497 0.067,0.754c0,0.609 -0.138,1.19 -0.372,1.725c0.144,-0.001 0.29,-0.001 0.44,-0.002Zm-1.348,-4.813c-0.24,0.139 -0.513,0.272 -0.82,0.398c-0.025,0.011 -0.05,0.021 -0.076,0.031c-0.754,-0.697 -1.803,-1.13 -2.963,-1.13c-1.23,0 -2.335,0.486 -3.096,1.259c-0.28,-0.15 -0.544,-0.325 -0.793,-0.527c0.943,-0.994 2.337,-1.624 3.889,-1.624c1.536,0 2.917,0.617 3.859,1.593Zm-3.778,6.877c-0.051,0.001 -0.103,0.002 -0.155,0.002c-0.052,0 -0.104,-0.001 -0.156,-0.002l0.311,-0Zm3.987,-4.145c-0.582,0.23 -1.249,0.427 -2,0.592c-0.823,0.18 -1.742,0.271 -2.757,0.271c-0.462,-0 -0.922,-0.029 -1.379,-0.087c-0.57,-0.073 -1.137,-0.19 -1.7,-0.353c-0.158,-0.046 -0.313,-0.096 -0.465,-0.15c0.022,-0.94 0.42,-1.796 1.063,-2.448c0.002,0.001 0.004,0.002 0.007,0.004c0.196,0.104 0.401,0.197 0.613,0.276c0.631,0.237 1.274,0.355 1.928,0.355c0.473,0 0.952,-0.047 1.438,-0.142c0.141,-0.028 0.282,-0.059 0.423,-0.094c0.601,-0.151 1.151,-0.326 1.65,-0.528c0.654,0.605 1.087,1.409 1.179,2.304Zm-8.031,-2.702c-0.668,0.704 -1.109,1.59 -1.222,2.565c-0.051,-0.026 -0.101,-0.053 -0.151,-0.08c-0.403,-0.219 -0.782,-0.474 -1.139,-0.764c-0.54,-0.44 -1.011,-0.953 -1.413,-1.54l-0.362,-1.582c0,0 0.606,-0.54 2.546,-1.196c0.069,0.243 0.156,0.475 0.261,0.698c0.305,0.642 0.705,1.195 1.201,1.657c0.091,0.085 0.184,0.166 0.279,0.242Zm7.748,-0.031c0.165,-0.095 0.315,-0.194 0.448,-0.295c0.327,-0.248 0.491,-0.474 0.491,-0.677l0,-0.271c0,-0.135 -0.011,-0.248 -0.034,-0.338l0.372,-0.338l2.504,3.586l-0.338,0.169c-0.271,-0.112 -0.463,-0.169 -0.575,-0.169c-0.181,0 -0.474,0.102 -0.88,0.305c-0.225,0.112 -0.484,0.234 -0.775,0.364c-0.158,-0.887 -0.59,-1.69 -1.213,-2.336Z" style="fill:#171717;"/></svg>