<svg width="129" height="54" viewBox="0 0 129 54" fill="none" xmlns="http://www.w3.org/2000/svg">
    <g clip-path="url(#clip0_3045_2983)">
        <path d="M57.0185 7.92174C57.0185 7.85243 57.0097 7.78325 56.9922 7.71407C56.9746 7.64476 56.9658 7.55828 56.9658 7.45438C56.9658 7.28129 56.7902 7.04755 56.4389 6.75339C56.0877 6.45911 55.5871 6.17348 54.9372 5.89662C54.2873 5.61964 53.5232 5.3859 52.645 5.19552C51.7668 5.00514 50.8008 4.91001 49.747 4.91001C48.4823 4.91001 47.3318 5.07444 46.2956 5.40332C45.2593 5.73219 44.3548 6.22537 43.5819 6.88311C42.8091 7.54086 42.2119 8.35439 41.7903 9.32371C41.3689 10.293 41.158 11.4008 41.158 12.647C41.158 13.8933 41.3952 15.0098 41.8694 15.9964C42.3437 16.983 42.9671 17.8311 43.74 18.5408C44.5128 19.2504 45.3911 19.7871 46.3747 20.1505C47.3582 20.514 48.3593 20.6957 49.378 20.6957C50.3265 20.6957 51.2926 20.5745 52.2762 20.3323C53.2598 20.0899 54.1555 19.8044 54.9635 19.4755C55.7715 19.1466 56.4301 18.7918 56.9395 18.4109C57.4489 18.0302 57.7035 17.684 57.7035 17.3724V16.9569C57.7035 16.7493 57.6859 16.5762 57.6508 16.4377L58.2304 15.9184L62.1297 21.4227L61.6027 21.6823C61.1812 21.5093 60.8826 21.4227 60.707 21.4227C60.4259 21.4227 59.9693 21.5784 59.337 21.89C58.7046 22.2016 57.9054 22.5564 56.9395 22.9546C55.9734 23.3526 54.8493 23.6902 53.5671 23.9672C52.285 24.2441 50.8534 24.3825 49.2727 24.3825C47.6568 24.3825 46.0585 24.1575 44.4777 23.7075C42.8969 23.2575 41.4917 22.5391 40.2623 21.5525C39.0328 20.5659 38.0317 19.337 37.2588 17.8657C36.486 16.3945 36.0995 14.6896 36.0995 12.7509C36.0995 10.8123 36.486 9.11603 37.2588 7.66205C38.0317 6.20808 39.0504 4.98784 40.3149 4.00122C41.5796 3.01461 43.0287 2.27903 44.6621 1.79437C46.2956 1.30971 47.9729 1.06732 49.6942 1.06732C51.0291 1.06732 52.2499 1.18852 53.3563 1.43079C54.4629 1.67318 55.4378 1.95016 56.2808 2.26174C57.1239 2.57319 57.8265 2.85017 58.3885 3.09256C58.9506 3.33483 59.3545 3.45603 59.6004 3.45603C59.7761 3.45603 59.9253 3.40402 60.0483 3.30024C60.1713 3.19634 60.303 3.10986 60.4434 3.04055L61.0758 3.40402L57.5982 8.33709L57.0185 7.92174Z" fill="#171717"/>
        <path d="M82.1001 14.6723L77.832 5.94852L74.0909 14.6723H82.1001ZM64.5009 23.2921C64.9223 23.2228 65.2648 23.0238 65.5283 22.6949C65.7917 22.366 65.9938 22.0631 66.1342 21.7863L73.9854 4.91002C74.1963 4.42536 74.3631 4.03582 74.486 3.74154C74.609 3.44739 74.6704 3.16176 74.6704 2.88477C74.6704 2.6771 74.6265 2.54725 74.5388 2.49537C74.4509 2.44348 74.3542 2.38282 74.2489 2.31363V1.37891H82.2054V2.31363C82.1001 2.38282 81.9859 2.43483 81.8629 2.46942C81.7401 2.50401 81.6785 2.64251 81.6785 2.88477C81.6785 3.09257 81.7576 3.34349 81.9157 3.63777C82.0738 3.93205 82.2405 4.26957 82.4163 4.65033L90.9524 22.3055C91.1281 22.6171 91.3213 22.8421 91.5321 22.9805C91.7428 23.119 91.9712 23.2228 92.217 23.2921V24.2267H84.7347V23.4479C84.9103 23.4479 85.0948 23.3959 85.288 23.2921C85.4812 23.1882 85.5778 22.9978 85.5778 22.7209C85.5778 22.5132 85.5426 22.3228 85.4724 22.1497C85.4021 21.9766 85.3144 21.7515 85.2089 21.4747L83.7863 18.5148H72.51L71.0347 21.3189C70.8942 21.5959 70.78 21.8468 70.6922 22.0718C70.6043 22.2969 70.5605 22.4959 70.5605 22.669C70.5605 22.946 70.6482 23.119 70.8239 23.1882C70.9995 23.2575 71.2455 23.2921 71.5616 23.2921V24.2267H64.5009V23.2921Z" fill="#171717"/>
        <path d="M111.555 11.2451C114.998 11.2451 116.719 10.1718 116.719 8.02553C116.719 7.16011 116.306 6.47642 115.481 5.97446C114.655 5.47251 113.347 5.22147 111.555 5.22147H103.23V11.2451H111.555ZM111.661 1.37891C114.787 1.37891 117.228 1.88951 118.985 2.91072C120.741 3.93205 121.619 5.67154 121.619 8.12943C121.619 9.06415 121.444 9.89498 121.093 10.6219C120.741 11.349 120.276 11.9806 119.696 12.5173C119.117 13.0539 118.476 13.4865 117.773 13.8154C117.07 14.1442 116.35 14.3953 115.613 14.5684L120.776 21.9939C121.057 22.3747 121.365 22.6603 121.699 22.8507C122.032 23.0411 122.392 23.1882 122.779 23.2921V24.2267H114.717V23.2921C115.173 23.2921 115.402 23.1363 115.402 22.8248C115.402 22.4786 115.138 21.942 114.611 21.215L110.449 15.0876H103.124V22.5132C103.124 22.7902 103.239 22.9892 103.467 23.1104C103.695 23.2315 103.915 23.2921 104.126 23.2921V24.2267H97.1174V23.2921C97.7498 23.2921 98.0659 23.0324 98.0659 22.5132V3.09257C98.0659 2.5732 97.7498 2.31363 97.1174 2.31363V1.37891H111.661Z" fill="#171717"/>
        <path d="M125.203 29.4195H34.4134V32.0159H125.203V29.4195Z" fill="#171717"/>
        <path d="M41.8246 43.9599C42.5226 43.9599 43.1063 43.8354 43.5757 43.5863C44.045 43.3372 44.2797 42.8332 44.2797 42.0741C44.2797 41.3388 44.045 40.8229 43.5757 40.5264C43.1063 40.2299 42.5226 40.0816 41.8246 40.0816H35.759V43.9599H41.8246ZM32.2929 38.6228C32.2929 38.267 31.992 38.0891 31.3903 38.0891V37.4487H41.8968C43.8465 37.4487 45.3087 37.7926 46.2836 38.4805C47.2584 39.1684 47.7458 40.3663 47.7458 42.0741C47.7458 43.782 47.2584 44.9621 46.2836 45.6144C45.3087 46.2667 43.8465 46.5928 41.8968 46.5928H35.759V51.9299C35.759 52.2857 36.0117 52.4636 36.5172 52.4636V53.1041H31.3903V52.4636C31.992 52.4636 32.2929 52.2857 32.2929 51.9299V38.6228Z" fill="#171717"/>
        <path d="M61.7545 44.2089C64.1134 44.2089 65.2928 43.4736 65.2928 42.003C65.2928 41.41 65.01 40.9415 64.4443 40.5975C63.8787 40.2536 62.9821 40.0816 61.7545 40.0816H56.0499V44.2089H61.7545ZM61.8267 37.4487C63.969 37.4487 65.6418 37.7985 66.8453 38.4983C68.0488 39.198 68.6506 40.39 68.6506 42.0741C68.6506 42.7146 68.5302 43.2839 68.2895 43.782C68.0488 44.2801 67.7299 44.713 67.3327 45.0807C66.9356 45.4483 66.4963 45.7448 66.0149 45.9702C65.5335 46.1955 65.0401 46.3675 64.5346 46.4861L68.0729 51.5741C68.2654 51.835 68.476 52.0307 68.7047 52.1612C68.9334 52.2916 69.1801 52.3924 69.4449 52.4636V53.1041H63.9208V52.4636C64.2337 52.4636 64.3902 52.3569 64.3902 52.1434C64.3902 51.9062 64.2096 51.5385 63.8486 51.0404L60.9963 46.8419H55.9777V51.9299C55.9777 52.1197 56.0559 52.2561 56.2124 52.3391C56.3689 52.4221 56.5193 52.4636 56.6637 52.4636V53.1041H51.8618V52.4636C52.295 52.4636 52.5116 52.2857 52.5116 51.9299V38.6228C52.5116 38.267 52.295 38.0891 51.8618 38.0891V37.4487H61.8267Z" fill="#171717"/>
        <path d="M88.0028 40.7577C88.0028 40.307 87.6297 40.0816 86.8835 40.0816H78.0739V43.6397H83.6341C84.0433 43.6397 84.3442 43.61 84.5367 43.5507C84.7293 43.4914 84.8256 43.3313 84.8256 43.0704H85.4755V46.8419H84.7534C84.8256 46.581 84.7293 46.4209 84.4645 46.3616C84.1997 46.3023 83.8267 46.2726 83.3453 46.2726H78.0739V50.4711H87.3168C87.6056 50.4711 87.8463 50.4059 88.0389 50.2754C88.2315 50.145 88.3277 49.973 88.3277 49.7595H88.9776V53.4954H88.3277C88.3277 53.282 88.2315 53.1634 88.0389 53.1396C87.8463 53.1159 87.6056 53.1041 87.3168 53.1041H74.0663V52.4636C74.1866 52.4636 74.307 52.4221 74.4273 52.3391C74.5477 52.2561 74.6079 52.1197 74.6079 51.9299V38.6228C74.6079 38.4331 74.5477 38.2967 74.4273 38.2137C74.307 38.1306 74.1866 38.0891 74.0663 38.0891V37.4487H86.8835C87.6297 37.4487 88.0028 37.2352 88.0028 36.8082H88.6527V40.7577H88.0028Z" fill="#171717"/>
        <path d="M95.1877 47.6603C95.1877 47.7551 95.1817 47.856 95.1696 47.9627C95.1576 48.0694 95.1516 48.1821 95.1516 48.3007C95.1516 48.6565 95.3803 48.9827 95.8376 49.2792C96.2949 49.5757 96.8425 49.8247 97.4804 50.0264C98.1182 50.228 98.7561 50.3881 99.3939 50.5067C100.032 50.6253 100.531 50.6846 100.892 50.6846C101.229 50.6846 101.644 50.6609 102.138 50.6134C102.631 50.566 103.119 50.4652 103.6 50.311C104.082 50.1568 104.491 49.9433 104.828 49.6706C105.165 49.3978 105.333 49.036 105.333 48.5854C105.333 48.0635 105.038 47.684 104.449 47.4468C103.859 47.2096 103.119 47.0257 102.228 46.8953C101.338 46.7648 100.375 46.6344 99.3398 46.5039C98.3048 46.3734 97.342 46.16 96.4514 45.8635C95.5608 45.567 94.8206 45.14 94.2309 44.5826C93.6412 44.0251 93.3463 43.2364 93.3463 42.2165C93.3463 40.6984 93.9842 39.4886 95.2599 38.5873C96.5356 37.6859 98.3288 37.2352 100.64 37.2352C101.771 37.2352 102.74 37.3242 103.546 37.5021C104.352 37.68 105.032 37.8756 105.586 38.0891C106.14 38.3026 106.591 38.4983 106.94 38.6762C107.289 38.8541 107.548 38.9431 107.716 38.9431C107.909 38.9431 108.053 38.9134 108.149 38.8541C108.246 38.7948 108.366 38.7296 108.51 38.6584L108.908 39.0498L107.102 42.3944L106.452 42.1809C106.428 42.0386 106.404 41.8962 106.38 41.7539C106.356 41.6116 106.248 41.4693 106.055 41.327C105.574 40.9237 104.828 40.5798 103.817 40.2951C102.806 40.0105 101.675 39.8682 100.423 39.8682C99.9415 39.8682 99.4842 39.8978 99.0509 39.9571C98.6177 40.0164 98.2326 40.1172 97.8956 40.2595C97.5586 40.4019 97.2938 40.5857 97.1013 40.811C96.9087 41.0364 96.8124 41.3151 96.8124 41.6472C96.8124 42.169 97.1073 42.5426 97.697 42.768C98.2867 42.9933 99.0269 43.1712 99.9175 43.3017C100.808 43.4321 101.771 43.5626 102.806 43.693C103.841 43.8235 104.804 44.0429 105.694 44.3513C106.585 44.6596 107.325 45.1103 107.915 45.7033C108.504 46.2963 108.799 47.1147 108.799 48.1584C108.799 49.2021 108.541 50.056 108.023 50.7202C107.506 51.3843 106.862 51.9062 106.091 52.2857C105.321 52.6652 104.473 52.9143 103.546 53.0329C102.619 53.1515 101.747 53.2108 100.928 53.2108C100.11 53.2108 99.2977 53.1337 98.4913 52.9795C97.685 52.8254 96.9508 52.6475 96.2889 52.4458C95.627 52.2442 95.0674 52.0544 94.61 51.8765C94.1527 51.6986 93.8759 51.6097 93.7796 51.6097C93.6111 51.6097 93.4667 51.6809 93.3463 51.8232L92.8409 51.4674L94.5017 47.4824L95.1877 47.6603Z" fill="#171717"/>
        <path d="M115.262 47.6603C115.262 47.7551 115.256 47.856 115.244 47.9627C115.232 48.0694 115.226 48.1821 115.226 48.3007C115.226 48.6565 115.455 48.9827 115.912 49.2792C116.369 49.5757 116.917 49.8247 117.555 50.0264C118.193 50.228 118.83 50.3881 119.468 50.5067C120.106 50.6253 120.606 50.6846 120.967 50.6846C121.304 50.6846 121.719 50.6609 122.212 50.6134C122.706 50.566 123.193 50.4652 123.675 50.311C124.156 50.1568 124.565 49.9433 124.902 49.6706C125.239 49.3978 125.408 49.036 125.408 48.5854C125.408 48.0635 125.113 47.684 124.523 47.4468C123.933 47.2096 123.193 47.0257 122.303 46.8953C121.412 46.7648 120.449 46.6344 119.414 46.5039C118.379 46.3734 117.416 46.16 116.526 45.8635C115.635 45.567 114.895 45.14 114.305 44.5826C113.716 44.0251 113.421 43.2364 113.421 42.2165C113.421 40.6984 114.059 39.4886 115.334 38.5873C116.61 37.6859 118.403 37.2352 120.714 37.2352C121.845 37.2352 122.814 37.3242 123.62 37.5021C124.427 37.68 125.107 37.8756 125.66 38.0891C126.214 38.3026 126.665 38.4983 127.014 38.6762C127.363 38.8541 127.622 38.9431 127.79 38.9431C127.983 38.9431 128.127 38.9134 128.224 38.8541C128.32 38.7948 128.44 38.7296 128.585 38.6584L128.982 39.0498L127.177 42.3944L126.527 42.1809C126.503 42.0386 126.479 41.8962 126.455 41.7539C126.431 41.6116 126.322 41.4693 126.13 41.327C125.648 40.9237 124.902 40.5798 123.891 40.2951C122.88 40.0105 121.749 39.8682 120.497 39.8682C120.016 39.8682 119.559 39.8978 119.125 39.9571C118.692 40.0164 118.307 40.1172 117.97 40.2595C117.633 40.4019 117.368 40.5857 117.176 40.811C116.983 41.0364 116.887 41.3151 116.887 41.6472C116.887 42.169 117.182 42.5426 117.771 42.768C118.361 42.9933 119.101 43.1712 119.992 43.3017C120.882 43.4321 121.845 43.5626 122.88 43.693C123.915 43.8235 124.878 44.0429 125.769 44.3513C126.659 44.6596 127.399 45.1103 127.989 45.7033C128.579 46.2963 128.874 47.1147 128.874 48.1584C128.874 49.2021 128.615 50.056 128.097 50.7202C127.58 51.3843 126.936 51.9062 126.166 52.2857C125.396 52.6652 124.547 52.9143 123.62 53.0329C122.694 53.1515 121.821 53.2108 121.003 53.2108C120.184 53.2108 119.372 53.1337 118.566 52.9795C117.759 52.8254 117.025 52.6475 116.363 52.4458C115.701 52.2442 115.142 52.0544 114.684 51.8765C114.227 51.6986 113.95 51.6097 113.854 51.6097C113.685 51.6097 113.541 51.6809 113.421 51.8232L112.915 51.4674L114.576 47.4824L115.262 47.6603Z" fill="#171717"/>
        <path d="M11.5883 18.5726C11.3049 18.5726 11.0302 18.6633 10.7644 18.8447C10.4986 19.026 10.3658 19.2981 10.3658 19.6608C10.3658 19.9782 10.4632 20.3635 10.6581 20.8169C10.853 21.2703 11.1099 21.7463 11.4288 22.2451L15.7878 29.2499L20.1998 22.1091C20.5897 21.4743 20.9263 20.9302 21.2099 20.4769C21.4934 20.0235 21.6351 19.6834 21.6351 19.4567C21.6351 18.8674 21.1567 18.5726 20.1998 18.5726V17.3484H30.9908V18.5726C30.1404 18.5726 29.5113 18.6407 29.1037 18.7767C28.6962 18.9128 28.3507 19.2074 28.0672 19.6608L18.871 34.2144L27.6951 48.6322C27.8368 48.9042 28.0052 49.2215 28.2001 49.5842C28.3949 49.9469 28.6342 50.2983 28.9177 50.6384C29.2013 50.9784 29.5113 51.2732 29.8479 51.5225C30.1846 51.7718 30.5656 51.8965 30.9908 51.8965V53.1206H20.3062V51.8965C20.8732 51.8965 21.1567 51.5338 21.1567 50.8084C21.1567 50.491 21.0415 50.1283 20.8111 49.7202C20.5808 49.3122 20.3062 48.8589 19.9872 48.3601L15.0968 40.1991L9.83409 48.6322C9.65695 48.9494 9.43543 49.3235 9.16965 49.7542C8.90388 50.185 8.771 50.5817 8.771 50.9444C8.771 51.5792 9.1076 51.8965 9.78093 51.8965V53.1206H0V51.8965C0.673332 51.8965 1.1961 51.8059 1.56818 51.6245C1.94027 51.4431 2.32125 51.0351 2.71101 50.4003L12.0135 35.2345L3.40214 21.225C2.79964 20.2275 2.25029 19.5362 1.75422 19.1507C1.25803 18.7654 0.673332 18.5726 0 18.5726V17.3484H11.5883V18.5726Z" fill="#171717"/>
        <path d="M37.5558 23.2638C37.5558 23.2638 39.5589 24.5467 38.5105 25.1456C37.4618 25.7431 37.5576 26.599 37.5576 26.599L42.9023 26.4775C42.4744 25.5962 42.2271 24.6285 42.2271 23.6061C42.2271 19.6421 45.8171 16.4191 50.2308 16.4191C54.644 16.4191 58.2343 19.6419 58.2343 23.6061C58.2343 24.5417 58.0192 25.4333 57.655 26.2539C67.6388 26.2035 87.0595 26.1031 99.6066 26.0281C99.3047 25.2673 99.1092 24.4602 99.1092 23.607C99.1092 19.598 102.742 16.3346 107.207 16.3346C111.673 16.3346 115.306 19.598 115.306 23.607C115.306 24.3238 115.152 25.0045 114.937 25.6605C119.795 25.1875 127.025 24.2915 127.025 24.2915L125.882 23.3222L127.98 21.7808C130.14 19.899 126.581 18.3588 126.581 18.3588C127.851 15.1074 125.756 12.8831 125.756 12.8831C127.282 12.0838 125.693 11.2857 125.693 11.2857L127.217 9.51703L121.31 8.09085C117.689 7.80608 114.259 9.91681 114.259 9.91681C114.259 9.91681 102.365 3.63378 99.8167 3.42932C100.078 3.2529 100.345 3.09044 100.6 2.89858C102.112 1.76618 99.9428 -0.159238 98.4438 0.962905C96.9651 2.07047 95.25 2.87659 93.4653 3.50468C86.1229 3.69123 74.9061 4.1539 73.0341 4.95458C70.3664 6.09464 61.7908 11.7415 61.7908 11.7415C41.8459 12.9395 37.4979 16.7616 37.4979 16.7616L38.1858 19.7279C34.0794 21.4384 37.5558 23.2638 37.5558 23.2638Z" fill="#171717" stroke="#171717" stroke-width="2" stroke-miterlimit="2" stroke-linejoin="round"/>
        <path d="M50.2308 17.7881C46.6525 17.7881 43.7516 20.3925 43.7516 23.6061C43.7516 24.6404 44.0777 25.5978 44.6037 26.4382C45.7139 28.2124 47.8039 29.4235 50.2308 29.4235C52.7371 29.4235 54.887 28.1321 55.9625 26.2621C56.423 25.4627 56.7099 24.5683 56.7099 23.6061C56.7099 20.3924 53.8092 17.7881 50.2308 17.7881Z" fill="#171717"/>
        <path d="M107.208 17.7029C103.577 17.7029 100.635 20.3471 100.635 23.6061C100.635 24.4671 100.851 25.2799 101.221 26.0177C102.25 28.0721 104.537 29.508 107.208 29.508C109.972 29.508 112.327 27.9743 113.299 25.8073C113.605 25.1261 113.783 24.3853 113.783 23.6061C113.784 20.3457 110.84 17.7029 107.208 17.7029Z" fill="#171717"/>
        <path fill-rule="evenodd" clip-rule="evenodd" d="M50.4731 29.4195C50.3926 29.4222 50.3119 29.4235 50.2308 29.4235C50.1495 29.4235 50.0688 29.4222 49.9884 29.4195H50.4731ZM108.348 29.4195C107.978 29.4776 107.597 29.508 107.208 29.508C106.82 29.508 106.44 29.4776 106.07 29.4195H108.348ZM56.6815 23.058C55.7749 23.4114 54.7369 23.7145 53.5671 23.9671C52.285 24.2441 50.8534 24.3825 49.2727 24.3825C48.5536 24.3825 47.8379 24.338 47.1257 24.2488C46.2376 24.1377 45.355 23.9572 44.4777 23.7074C44.2319 23.6375 43.9904 23.561 43.7532 23.4781C43.7878 22.0347 44.4078 20.7207 45.4086 19.7201C45.4122 19.7219 45.4159 19.7239 45.4194 19.7258C45.7259 19.8869 46.0443 20.0285 46.3747 20.1505C47.3582 20.514 48.3593 20.6957 49.378 20.6957C50.1139 20.6957 50.8603 20.6228 51.6174 20.4769C51.836 20.4348 52.0557 20.3866 52.2762 20.3322C53.2124 20.1016 54.069 19.8318 54.846 19.5227C55.8648 20.451 56.5386 21.685 56.6815 23.058ZM44.174 18.9122C43.1345 19.9924 42.4466 21.3525 42.2714 22.8481C42.1923 22.8079 42.1137 22.7669 42.0357 22.7252C41.4087 22.389 40.8176 21.9981 40.2623 21.5525C39.4217 20.8781 38.6879 20.0903 38.0609 19.1893L37.4979 16.7616C37.4979 16.7616 38.4407 15.9329 41.4625 14.9261C41.5697 15.2984 41.7053 15.6551 41.8694 15.9964C42.3437 16.983 42.9671 17.8311 43.74 18.5407C43.8812 18.6703 44.0258 18.7943 44.174 18.9122ZM82.0776 3.94808C82.1865 4.16304 82.2995 4.39703 82.4163 4.6503L90.9524 22.3055C91.1281 22.6171 91.3213 22.842 91.5321 22.9805C91.7428 23.119 91.9712 23.2228 92.2171 23.2921V24.2267H84.7347V23.4479C84.9103 23.4479 85.0949 23.3959 85.288 23.2921C85.4812 23.1882 85.5778 22.9978 85.5778 22.7208C85.5778 22.5132 85.5427 22.3228 85.4725 22.1497C85.4021 21.9766 85.3144 21.7515 85.2089 21.4746L83.7863 18.5148H72.51L71.0347 21.3189C70.8942 21.5958 70.78 21.8468 70.6922 22.0717C70.6044 22.2968 70.5605 22.4959 70.5605 22.6689C70.5605 22.9459 70.6482 23.119 70.8239 23.1882C70.9995 23.2575 71.2455 23.2921 71.5616 23.2921V24.2267H64.5009V23.2921C64.9223 23.2228 65.2648 23.0238 65.5284 22.6949C65.7917 22.366 65.9938 22.0631 66.1342 21.7862L73.9854 4.90999C74.0197 4.83129 74.0526 4.75519 74.0846 4.68168C75.7186 4.3811 78.7023 4.13809 82.0776 3.94808ZM99.1432 24.2267H97.1174V23.2921C97.7498 23.2921 98.0659 23.0324 98.0659 22.5132V3.09254C98.0659 2.57317 97.7498 2.3136 97.1174 2.3136V1.84414C97.3688 1.69576 97.6155 1.54084 97.8568 1.37888H100.909C101.221 1.84389 101.216 2.43702 100.6 2.89858C100.345 3.09044 100.078 3.2529 99.8167 3.42932C100.672 3.49789 102.579 4.25101 104.737 5.22144H103.23V11.245H111.555C114.541 11.245 116.232 10.4377 116.628 8.82297C117.915 8.36042 119.591 7.95569 121.31 8.09085L121.619 8.16559C121.615 9.0855 121.439 9.90434 121.092 10.6219C120.741 11.3489 120.276 11.9806 119.696 12.5173C119.117 13.0538 118.476 13.4865 117.773 13.8153C117.07 14.1442 116.35 14.3953 115.613 14.5683L120.776 21.9939C121.057 22.3747 121.365 22.6603 121.699 22.8507C122.032 23.0411 122.392 23.1882 122.779 23.2921V24.2267H115.268C115.292 24.0231 115.306 23.8165 115.306 23.607C115.306 23.446 115.3 23.2863 115.288 23.1279C115.364 23.0527 115.402 22.9516 115.402 22.8247C115.402 22.609 115.3 22.3194 115.095 21.956C114.7 20.4359 113.773 19.0971 112.5 18.1077L110.449 15.0876H103.124V17.3284C100.724 18.5921 99.1092 20.9338 99.1092 23.607C99.1092 23.8163 99.121 24.023 99.1432 24.2267ZM56.2409 18.8644C56.4986 18.7175 56.7315 18.5664 56.9395 18.4109C57.4489 18.0301 57.7035 17.684 57.7035 17.3724V16.9569C57.7035 16.7492 57.6859 16.5762 57.6508 16.4377L58.2304 15.9184L62.1297 21.4226L61.6027 21.6823C61.1812 21.5092 60.8826 21.4226 60.707 21.4226C60.4259 21.4226 59.9693 21.5784 59.337 21.89C58.9862 22.0628 58.584 22.249 58.1306 22.4485C57.8845 21.0886 57.212 19.8557 56.2409 18.8644ZM100.673 24.2267C100.648 24.023 100.635 23.816 100.635 23.6061C100.635 21.7325 101.608 20.0621 103.124 18.9804V22.5132C103.124 22.7901 103.239 22.9892 103.467 23.1104C103.695 23.2314 103.915 23.2921 104.126 23.2921V24.2267H100.673ZM82.1002 14.6722L77.832 5.94849L74.0909 14.6722H82.1002Z" fill="white"/>
        <path fill-rule="evenodd" clip-rule="evenodd" d="M49.9927 29.2959H50.4688H50.4731C50.5414 29.2959 50.5972 29.3499 50.5983 29.4174C50.5996 29.4848 50.5457 29.5407 50.4772 29.5429C50.4758 29.543 50.4745 29.543 50.4731 29.543C50.3926 29.5457 50.3119 29.5471 50.2308 29.5471C50.1495 29.5471 50.0688 29.5457 49.9884 29.543C49.987 29.543 49.9855 29.543 49.9842 29.5429C49.9158 29.5407 49.8619 29.4848 49.8631 29.4174C49.8642 29.3499 49.92 29.2959 49.9884 29.2959H49.9927ZM108.368 29.5414C107.991 29.6007 107.604 29.6316 107.208 29.6316C106.813 29.6316 106.426 29.6007 106.05 29.5414C105.986 29.5313 105.94 29.474 105.945 29.4097C105.95 29.3455 106.005 29.2959 106.07 29.2959H108.348C108.413 29.2959 108.468 29.3455 108.473 29.4097C108.478 29.474 108.432 29.5313 108.368 29.5414ZM56.7276 23.1729C55.8154 23.5286 54.771 23.8336 53.594 24.0878C52.3038 24.3664 50.8633 24.506 49.2727 24.506C48.5482 24.506 47.8274 24.4612 47.1099 24.3714C46.2155 24.2594 45.3265 24.0777 44.4429 23.8262C44.1947 23.7555 43.9509 23.6783 43.7112 23.5945C43.6602 23.5767 43.6266 23.5286 43.6278 23.4752C43.6633 21.9996 44.2964 20.6562 45.3194 19.6334C45.3583 19.5943 45.4188 19.5853 45.4678 19.6111C45.4713 19.6131 45.4749 19.615 45.4784 19.6168C45.7802 19.7753 46.0936 19.9147 46.4187 20.0348C47.3879 20.393 48.3742 20.5722 49.378 20.5722C50.106 20.5722 50.8444 20.5 51.5933 20.3557C51.81 20.314 52.0274 20.2662 52.2457 20.2124C53.1759 19.9832 54.027 19.7152 54.7992 19.4082C54.8442 19.3902 54.8956 19.3995 54.9312 19.432C55.9722 20.3807 56.6602 21.6423 56.8061 23.0454C56.8119 23.1004 56.7798 23.1525 56.7276 23.1729ZM45.4332 19.8725C44.513 20.8214 43.937 22.0465 43.8814 23.3916C44.0885 23.4622 44.2989 23.5279 44.5125 23.5889C45.3834 23.8368 46.2598 24.0159 47.1415 24.1263C47.8485 24.2147 48.5589 24.2589 49.2727 24.2589C50.8435 24.2589 52.2662 24.1217 53.5402 23.8464C54.6645 23.6037 55.6666 23.3141 56.5462 22.9774C56.3895 21.6981 55.76 20.547 54.8187 19.6666C54.0564 19.9655 53.2191 20.2272 52.3065 20.4521C52.084 20.5069 51.8622 20.5556 51.6415 20.5982C50.8763 20.7456 50.1218 20.8193 49.378 20.8193C48.3444 20.8193 47.3286 20.6349 46.3305 20.2662C46.0211 20.1519 45.722 20.0207 45.4332 19.8725ZM44.2649 18.9972C43.2442 20.058 42.568 21.3935 42.3959 22.8622C42.3911 22.9026 42.3666 22.9379 42.3303 22.9571C42.2941 22.9762 42.2506 22.9764 42.214 22.9579C42.134 22.9174 42.0546 22.8759 41.9758 22.8336C41.342 22.4939 40.7444 22.0988 40.1832 21.6484C39.3333 20.9664 38.5914 20.17 37.9575 19.2592C37.9486 19.2463 37.9422 19.232 37.9386 19.2168L37.3756 16.7892C37.3655 16.7453 37.3804 16.6995 37.4145 16.6694C37.4145 16.6694 38.3663 15.8273 41.4223 14.8091C41.4549 14.7983 41.4905 14.8011 41.5208 14.8168C41.5511 14.8325 41.5737 14.8598 41.5831 14.8924C41.6884 15.258 41.8217 15.6083 41.9827 15.9435C42.4499 16.9154 43.064 17.7512 43.8255 18.4503C43.9644 18.5779 44.1068 18.7 44.2528 18.8163C44.28 18.8379 44.2968 18.8697 44.299 18.9041C44.3014 18.9386 44.289 18.9723 44.2649 18.9972ZM43.9914 18.9242C43.8769 18.83 43.7647 18.7322 43.6545 18.6312C42.8702 17.9109 42.2374 17.0505 41.7561 16.0493C41.6076 15.7402 41.4818 15.4187 41.379 15.0846C38.8934 15.9245 37.874 16.6286 37.6375 16.8091C37.6375 16.8091 38.1777 19.1387 38.178 19.1391C38.7951 20.022 39.5162 20.7946 40.3415 21.4567C40.8907 21.8975 41.4754 22.2841 42.0956 22.6166C42.1203 22.6299 42.1452 22.6431 42.1701 22.6561C42.374 21.2478 43.0251 19.964 43.9914 18.9242ZM82.1897 3.89286C82.2992 4.10869 82.4126 4.3438 82.5299 4.59805C82.5299 4.59805 91.0638 22.2487 91.0651 22.251C91.2283 22.5392 91.4059 22.7491 91.6016 22.8777C91.8016 23.0091 92.0182 23.1077 92.2515 23.1733C92.3053 23.1884 92.3424 23.2369 92.3424 23.2921V24.2267C92.3424 24.295 92.2863 24.3502 92.217 24.3502H84.7347C84.6655 24.3502 84.6093 24.295 84.6093 24.2267V23.4479C84.6093 23.3796 84.6655 23.3243 84.7347 23.3243C84.8915 23.3243 85.0556 23.2763 85.228 23.1836C85.3832 23.1002 85.4524 22.9433 85.4524 22.7208C85.4524 22.5298 85.4207 22.3548 85.356 22.1955C85.2859 22.0228 85.1984 21.7986 85.0935 21.5228L83.7069 18.6384H72.5862L71.1464 21.3748C71.0082 21.6475 70.8957 21.8946 70.8092 22.1161C70.7278 22.3245 70.6858 22.5086 70.6858 22.6689C70.6858 22.8806 70.7362 23.0206 70.8705 23.0736C71.035 23.1383 71.2655 23.1686 71.5616 23.1686C71.6308 23.1686 71.687 23.2239 71.687 23.2921V24.2267C71.687 24.295 71.6308 24.3502 71.5616 24.3502H64.5009C64.4315 24.3502 64.3755 24.295 64.3755 24.2267V23.2921C64.3755 23.2317 64.4197 23.1802 64.4802 23.1702C64.8698 23.1062 65.1865 22.9223 65.4299 22.6184C65.6867 22.2978 65.884 22.0027 66.0213 21.7327L73.8708 4.85984C73.9048 4.78188 73.9375 4.70627 73.9693 4.63313C73.9857 4.59508 74.0203 4.56778 74.0615 4.56024C75.6988 4.25905 78.6885 4.01517 82.0704 3.82467C82.1203 3.82195 82.1672 3.84863 82.1897 3.89286ZM82.0021 4.07608C78.7124 4.2625 75.8041 4.49921 74.1735 4.79115C74.1498 4.84563 74.1256 4.90147 74.1006 4.95855C74.1003 4.95953 74.0999 4.96052 74.0994 4.96139L66.2482 21.8376C66.2477 21.839 66.2471 21.8402 66.2464 21.8415C66.1026 22.1249 65.8963 22.435 65.6268 22.7715C65.3655 23.0976 65.0319 23.3052 64.6262 23.3939V24.1032H71.4363V23.4137C71.1597 23.405 70.9402 23.3671 70.7774 23.303C70.5601 23.2172 70.4351 23.0115 70.4351 22.6689C70.4351 22.4831 70.4809 22.269 70.5751 22.0274C70.6643 21.7992 70.78 21.5446 70.9225 21.2636C70.9228 21.263 70.9231 21.2625 70.9234 21.262L72.3988 18.458C72.4204 18.417 72.4633 18.3913 72.51 18.3913H83.7863C83.8347 18.3913 83.8788 18.4188 83.8995 18.4619L85.3223 21.4218C85.3238 21.4249 85.3251 21.4281 85.3264 21.4313C85.4313 21.7072 85.5188 21.9314 85.5888 22.1037C85.6647 22.2908 85.7031 22.4965 85.7031 22.7208C85.7031 23.0524 85.5793 23.2762 85.3481 23.4006C85.1795 23.4911 85.0166 23.545 84.86 23.5638V24.1032H92.0917V23.3835C91.8677 23.3117 91.6579 23.2117 91.4625 23.0833C91.2378 22.9357 91.0301 22.6975 90.8428 22.3654C90.8416 22.3632 90.8404 22.361 90.8393 22.3586L82.3031 4.70343C82.3027 4.70281 82.3025 4.70207 82.3021 4.70145C82.1991 4.47796 82.099 4.26955 82.0021 4.07608ZM82.1001 14.7958H74.0909C74.0489 14.7958 74.0096 14.775 73.9863 14.7404C73.9631 14.706 73.959 14.6622 73.9754 14.6241L77.7165 5.90044C77.7357 5.85572 77.7797 5.82619 77.8288 5.82495C77.8781 5.82372 77.9235 5.85115 77.9449 5.89488L82.213 14.6185C82.2318 14.6568 82.2291 14.7019 82.2063 14.7379C82.1834 14.7739 82.1433 14.7958 82.1001 14.7958ZM81.9004 14.5487L77.8395 6.24834L74.2799 14.5487H81.9004ZM99.1432 24.3502H97.1174C97.0482 24.3502 96.9921 24.295 96.9921 24.2267V23.2921C96.9921 23.2239 97.0482 23.1686 97.1174 23.1686C97.3972 23.1686 97.6087 23.1173 97.7485 23.0024C97.8804 22.8942 97.9406 22.7296 97.9406 22.5132V3.09255C97.9406 2.87598 97.8804 2.71142 97.7485 2.6032C97.6087 2.48842 97.3972 2.43715 97.1174 2.43715C97.0482 2.43715 96.9921 2.38181 96.9921 2.31361V1.84415C96.9921 1.80078 97.0152 1.76051 97.053 1.73827C97.3023 1.59101 97.5469 1.43744 97.7862 1.27684C97.807 1.26288 97.8316 1.25534 97.8568 1.25534H100.909C100.951 1.25534 100.99 1.27622 101.013 1.31081C101.187 1.56939 101.27 1.86416 101.226 2.15795C101.183 2.44926 101.015 2.74243 100.675 2.99693C100.506 3.1248 100.331 3.23981 100.155 3.35459C101.123 3.54731 102.857 4.24027 104.789 5.10914C104.843 5.13324 104.872 5.19093 104.859 5.24776C104.847 5.30459 104.796 5.34499 104.737 5.34499H103.355V11.1215H111.555C114.461 11.1215 116.121 10.3653 116.506 8.79394C116.516 8.75379 116.546 8.72118 116.585 8.70697C117.886 8.23923 119.581 7.83092 121.32 7.96769C121.326 7.96818 121.333 7.96929 121.339 7.9709L121.649 8.04564C121.706 8.05923 121.745 8.10914 121.745 8.16622C121.74 9.10589 121.56 9.94203 121.206 10.675C120.848 11.4161 120.373 12.0602 119.782 12.6072C119.193 13.1528 118.541 13.5926 117.827 13.927C117.172 14.2333 116.503 14.4728 115.818 14.6456L120.879 21.9225C121.148 22.2871 121.442 22.5613 121.761 22.7438C122.086 22.9289 122.436 23.0719 122.812 23.1729C122.866 23.1876 122.904 23.2364 122.904 23.2921V24.2267C122.904 24.295 122.848 24.3502 122.779 24.3502H115.268C115.233 24.3502 115.199 24.3353 115.175 24.309C115.151 24.2827 115.14 24.2476 115.144 24.2125C115.167 24.0135 115.18 23.8117 115.18 23.607C115.18 23.449 115.174 23.2922 115.163 23.1367C115.16 23.1011 115.174 23.0661 115.199 23.0408C115.253 22.9876 115.276 22.9147 115.276 22.8247C115.276 22.6235 115.176 22.355 114.985 22.0159C114.98 22.0068 114.976 21.9969 114.973 21.9866C114.586 20.4925 113.674 19.1771 112.423 18.2047C112.412 18.1967 112.403 18.1872 112.396 18.1764L110.382 15.2111H103.25V17.3284C103.25 17.374 103.224 17.4159 103.183 17.4374C100.825 18.6795 99.2346 20.9796 99.2346 23.607C99.2346 23.8118 99.2461 24.0141 99.2679 24.2136C99.2717 24.2484 99.2603 24.2833 99.2365 24.3094C99.2128 24.3354 99.1788 24.3502 99.1432 24.3502ZM99.0053 24.1032C98.9912 23.9396 98.9838 23.7742 98.9838 23.607C98.9838 20.9127 100.595 18.548 102.999 17.2548V15.0876C102.999 15.0194 103.055 14.9641 103.124 14.9641H110.449C110.49 14.9641 110.53 14.9847 110.553 15.0189C110.553 15.0189 112.594 18.0229 112.593 18.0226C113.876 19.0244 114.81 20.3762 115.212 21.9097C115.425 22.2912 115.527 22.5973 115.527 22.8247C115.527 22.9648 115.489 23.0797 115.417 23.1704C115.426 23.3148 115.431 23.4605 115.431 23.607C115.431 23.7743 115.423 23.9396 115.408 24.1032H122.653C122.653 24.1032 122.653 23.3855 122.653 23.3855C122.291 23.2807 121.952 23.138 121.636 22.9577C121.288 22.7594 120.968 22.463 120.675 22.0666C120.674 22.0657 120.674 22.0647 120.673 22.0637L115.509 14.6382C115.486 14.6047 115.481 14.5619 115.496 14.5239C115.51 14.4859 115.543 14.4575 115.583 14.4481C116.313 14.277 117.025 14.029 117.719 13.7038C118.41 13.3804 119.04 12.9549 119.61 12.4272C120.179 11.9011 120.635 11.2816 120.979 10.5688C121.306 9.89199 121.477 9.12306 121.493 8.26234C121.493 8.26234 121.29 8.21317 121.288 8.21317C119.62 8.08419 117.994 8.46989 116.733 8.91687C116.298 10.5324 114.581 11.3686 111.555 11.3686H103.23C103.16 11.3686 103.104 11.3132 103.104 11.245V5.22145C103.104 5.15325 103.16 5.0979 103.23 5.0979C103.23 5.0979 104.156 5.0979 104.156 5.09803C102.237 4.25101 100.584 3.61489 99.8065 3.5525C99.7536 3.5483 99.7092 3.51161 99.6955 3.46108C99.6819 3.41055 99.7021 3.35693 99.7459 3.32741C100.006 3.15222 100.271 2.99087 100.523 2.80049L100.524 2.80025C100.8 2.59319 100.943 2.35907 100.978 2.12212C101.01 1.90851 100.955 1.69491 100.839 1.50243C100.839 1.50243 97.8954 1.50243 97.8956 1.5023C97.6819 1.64487 97.4642 1.782 97.2428 1.91395V2.19353C97.533 2.21021 97.7543 2.28631 97.9091 2.41343C98.0934 2.56477 98.1913 2.78962 98.1913 3.09255V22.5132C98.1913 22.816 98.0934 23.0408 97.9091 23.1923C97.7543 23.3193 97.533 23.3954 97.2428 23.4121V24.1032H99.0053ZM56.1782 18.7575C56.431 18.6134 56.6596 18.4651 56.8637 18.3126C57.1066 18.131 57.2895 17.9583 57.411 17.7932C57.5199 17.6451 57.5781 17.5057 57.5781 17.3724V16.9569C57.5781 16.7612 57.5623 16.5982 57.5292 16.4677C57.5179 16.4236 57.5324 16.3769 57.5665 16.3463L58.1461 15.827C58.1727 15.8032 58.2086 15.7917 58.2444 15.7956C58.2803 15.7996 58.3126 15.8186 58.3332 15.8478L62.2325 21.352C62.2533 21.3814 62.2601 21.4183 62.2512 21.4532C62.2422 21.4879 62.2184 21.5172 62.1858 21.5332L61.6588 21.7928C61.6263 21.8088 61.5881 21.8102 61.5545 21.7964C61.1551 21.6324 60.8734 21.5462 60.707 21.5462C60.437 21.5462 60.0004 21.7014 59.393 22.0006C59.0409 22.1742 58.6371 22.3611 58.1817 22.5613C58.1465 22.5768 58.106 22.5754 58.0719 22.5576C58.0378 22.5398 58.0139 22.5076 58.0071 22.4702C57.7654 21.1345 57.1045 19.9239 56.1507 18.9502C56.1239 18.9229 56.1113 18.8848 56.1167 18.8473C56.1221 18.8096 56.1447 18.7765 56.1782 18.7575ZM56.4399 18.892C57.3335 19.8425 57.9624 21 58.224 22.2718C58.617 22.0972 58.9693 21.9331 59.2809 21.7796C59.9382 21.4556 60.4149 21.2991 60.707 21.2991C60.8843 21.2991 61.1821 21.3793 61.5978 21.5467L61.9438 21.3762L58.2092 16.1044L57.7889 16.4809C57.8153 16.6137 57.8288 16.7725 57.8288 16.9569V17.3724C57.8288 17.7103 57.5677 18.0964 57.0152 18.5094C56.8406 18.6398 56.6489 18.7675 56.4399 18.892ZM100.549 24.2414C100.523 24.0329 100.51 23.821 100.51 23.6061C100.51 21.6922 101.502 19.9852 103.051 18.8804C103.089 18.8532 103.139 18.8494 103.181 18.8705C103.223 18.8916 103.25 18.9341 103.25 18.9804V22.5132C103.25 22.739 103.34 22.9028 103.526 23.0015C103.734 23.1119 103.934 23.1686 104.126 23.1686C104.195 23.1686 104.251 23.2239 104.251 23.2921V24.2267C104.251 24.295 104.195 24.3502 104.126 24.3502H100.673C100.609 24.3502 100.556 24.3035 100.549 24.2414ZM100.785 24.1032H104V23.4093C103.809 23.3901 103.611 23.3273 103.407 23.2191C103.137 23.0755 102.999 22.8413 102.999 22.5132C102.999 22.5132 102.999 19.2283 102.999 19.2283C101.629 20.2877 100.761 21.8559 100.761 23.6061C100.761 23.7738 100.769 23.9395 100.785 24.1032Z" fill="white"/>
    </g>
    <defs>
        <clipPath id="clip0_3045_2983">
            <rect width="129" height="53" fill="white" transform="translate(0 0.5)"/>
        </clipPath>
    </defs>
</svg>
